# Blender 4.5.3 LTS
# www.blender.org
mtllib ground.mtl
o ground_corridor
v -68.657249 -0.100000 67.408340
v -68.657249 0.100000 67.408340
v -68.657249 -0.100000 54.164764
v -68.657249 0.100000 54.164764
v -48.602692 -0.100000 67.408340
v -48.602692 0.100000 67.408340
v -48.602692 -0.100000 54.164764
v -48.602692 0.100000 54.164764
v -68.657249 -0.100000 53.506248
v -68.657249 0.100000 53.506248
v -48.602692 -0.100000 53.506248
v -48.602692 0.100000 53.506248
v -68.657249 -0.100000 48.360058
v -68.657249 0.100000 48.360058
v -48.602692 -0.100000 48.360058
v -48.602692 0.100000 48.360058
v -68.657249 -0.100000 41.165146
v -68.657249 0.100000 41.165146
v -48.602692 -0.100000 41.165146
v -48.602692 0.100000 41.165146
v -43.383331 -0.100000 48.360058
v -43.383331 0.100000 48.360058
v -43.383331 -0.100000 41.165146
v -43.383331 0.100000 41.165146
v -77.949661 -0.100000 48.360058
v -77.949661 0.100000 48.360058
v -77.949661 -0.100000 41.165146
v -77.949661 0.100000 41.165146
v -68.657249 -0.100000 36.604301
v -68.657249 0.100000 36.604301
v -48.602692 -0.100000 36.604301
v -48.602692 0.100000 36.604301
v -43.383331 -0.100000 36.604301
v -43.383331 0.100000 36.604301
v -28.627663 -0.100000 41.165146
v -28.627663 0.100000 41.165146
v -28.627663 -0.100000 36.604301
v -28.627663 0.100000 36.604301
v -22.920513 -0.100000 41.165146
v -22.920513 0.100000 41.165146
v -22.920513 -0.100000 36.604301
v -22.920513 0.100000 36.604301
v -22.115658 -0.100000 41.165146
v -22.115658 0.100000 41.165146
v -22.115658 -0.100000 36.604301
v -22.115658 0.100000 36.604301
v -28.627663 -0.100000 41.604156
v -28.627663 0.100000 41.604156
v -22.920513 -0.100000 41.604156
v -22.920513 0.100000 41.604156
v -28.627663 -0.100000 48.433228
v -28.627663 0.100000 48.433228
v -22.920513 -0.100000 48.433228
v -22.920513 0.100000 48.433228
v -42.749203 -0.100000 41.604156
v -42.749203 0.100000 41.604156
v -42.749203 -0.100000 48.433228
v -42.749203 0.100000 48.433228
v 40.541054 -0.100000 41.604156
v 40.541054 0.100000 41.604156
v 40.541054 -0.100000 48.433228
v 40.541054 0.100000 48.433228
v 56.272308 -0.100000 41.604156
v 56.272308 0.100000 41.604156
v 56.272308 -0.100000 48.433228
v 56.272308 0.100000 48.433228
v 58.906380 -0.100000 41.604156
v 58.906380 0.100000 41.604156
v 58.906380 -0.100000 48.433228
v 58.906380 0.100000 48.433228
v 56.272308 -0.100000 53.530640
v 56.272308 0.100000 53.530640
v 58.906380 -0.100000 53.530640
v 58.906380 0.100000 53.530640
v 66.003731 -0.100000 41.604156
v 66.003731 0.100000 41.604156
v 66.003731 -0.100000 48.433228
v 66.003731 0.100000 48.433228
v 66.003731 -0.100000 53.530640
v 66.003731 0.100000 53.530640
v 58.906380 -0.100000 26.019241
v 58.906380 0.100000 26.019241
v 66.003731 -0.100000 26.019241
v 66.003731 0.100000 26.019241
v 58.906380 -0.100000 20.019417
v 58.906380 0.100000 20.019417
v 66.003731 -0.100000 20.019417
v 66.003731 0.100000 20.019417
v 58.906380 -0.100000 9.434357
v 58.906380 0.100000 9.434357
v 66.003731 -0.100000 9.434357
v 66.003731 0.100000 9.434357
v 47.248184 -0.100000 26.019241
v 47.248184 0.100000 26.019241
v 47.248184 -0.100000 20.019417
v 47.248184 0.100000 20.019417
v -59.032768 0.100000 36.604301
v -59.032768 -0.100000 36.604301
v -68.657249 -0.100000 17.519981
v -68.657249 0.100000 17.519981
v -59.032768 0.100000 17.519981
v -59.032768 -0.100000 17.519981
v -68.657249 -0.100000 -12.908798
v -68.657249 0.100000 -12.908798
v -59.032768 0.100000 -12.908798
v -59.032768 -0.100000 -12.908798
v -72.450310 -0.100000 17.519981
v -72.450310 0.100000 17.519981
v -72.450310 -0.100000 -12.908798
v -72.450310 0.100000 -12.908798
v -68.657249 -0.100000 -19.188416
v -68.657249 0.100000 -19.188416
v -59.032768 0.100000 -19.188416
v -59.032768 -0.100000 -19.188416
v -72.450310 -0.100000 -19.188416
v -72.450310 0.100000 -19.188416
v -68.657249 -0.100000 -20.537064
v -68.657249 0.100000 -20.537064
v -59.032768 0.100000 -20.537064
v -59.032768 -0.100000 -20.537064
v -72.450310 -0.100000 -20.537064
v -72.450310 0.100000 -20.537064
v -29.489044 0.100141 -12.908798
v -29.489044 -0.099859 -12.908798
v -29.489044 0.100141 -19.188416
v -29.489044 -0.099859 -19.188416
v -29.489044 0.100141 -20.537064
v -29.489044 -0.099859 -20.537064
v -28.627663 -0.100000 -12.747627
v -28.627663 0.100000 -12.747627
v -22.920513 -0.100000 -12.747627
v -22.920513 0.100000 -12.747627
v -22.115658 -0.100000 -12.747627
v -22.115658 0.100000 -12.747627
v -28.627663 -0.100000 -20.562035
v -28.627663 0.100000 -20.562035
v -22.920513 -0.100000 -20.562035
v -22.920513 0.100000 -20.562035
v -22.115658 -0.100000 -20.562035
v -22.115658 0.100000 -20.562035
v -29.388617 -0.100000 -12.747627
v -29.388617 0.100000 -12.747627
v -29.388617 -0.100000 -20.562035
v -29.388617 0.100000 -20.562035
v -28.627663 -0.100000 -68.010422
v -28.627663 0.100000 -68.010422
v -22.920513 -0.100000 -68.010422
v -22.920513 0.100000 -68.010422
v -22.115658 -0.100000 -68.010422
v -22.115658 0.100000 -68.010422
v -29.388617 -0.100000 -68.010422
v -29.388617 0.100000 -68.010422
v -87.201096 -0.100000 -19.188416
v -87.201096 0.100000 -19.188416
v -87.201096 -0.100000 -20.537064
v -87.201096 0.100000 -20.537064
v -61.065838 -0.100000 -20.537064
v -61.065838 0.100000 -20.537064
v -68.657249 -0.100000 -35.317123
v -68.657249 0.100000 -35.317123
v -72.450310 -0.100000 -35.317123
v -72.450310 0.100000 -35.317123
v -87.201096 -0.100000 -35.317123
v -87.201096 0.100000 -35.317123
v -61.065838 -0.100000 -35.317123
v -61.065838 0.100000 -35.317123
v -80.568031 -0.100000 -35.317123
v -80.568024 0.100000 -35.317123
v -68.657249 -0.100000 -54.604362
v -68.657249 0.100000 -54.604362
v -72.450310 -0.100000 -54.604362
v -72.450310 0.100000 -54.604362
v -61.065838 -0.100000 -54.604362
v -61.065838 0.100000 -54.604362
v -80.568031 -0.100000 -54.604362
v -80.568024 0.100000 -54.604362
v -69.513397 -0.100000 -54.604362
v -69.513397 0.100000 -54.604362
v -72.450310 -0.100000 -167.849991
v -72.450310 0.100000 -167.849991
v -80.568031 -0.100000 -167.849991
v -80.568024 0.100000 -167.849991
v -69.513397 -0.100000 -167.849991
v -69.513397 0.100000 -167.849991
v -72.450310 -0.100000 -168.581680
v -72.450310 0.100000 -168.581680
v -80.568031 -0.100000 -168.581680
v -80.568024 0.100000 -168.581680
v -69.513397 -0.100000 -168.581680
v -69.513397 0.100000 -168.581680
v -72.450310 -0.100000 -178.825287
v -72.450310 0.100000 -178.825287
v -80.568031 -0.100000 -178.825287
v -80.568024 0.100000 -178.825287
v -69.513397 -0.100000 -178.825287
v -69.513397 0.100000 -178.825287
v -72.450310 -0.100000 -185.790939
v -72.450310 0.100000 -185.790939
v -80.568031 -0.100000 -185.790939
v -80.568024 0.100000 -185.790939
v -69.513397 -0.100000 -185.790939
v -69.513397 0.100000 -185.790939
v -49.582272 -0.100000 -178.825287
v -49.582272 0.100000 -178.825287
v -49.582272 -0.100000 -185.790939
v -49.582272 0.100000 -185.790939
v -125.171608 -0.098299 -168.581680
v -125.171600 0.101701 -168.581680
v -125.171608 -0.098299 -178.825287
v -125.171600 0.101701 -178.825287
v -125.171608 -0.098299 -185.790939
v -125.171600 0.101701 -185.790939
vn -1.0000 -0.0000 -0.0000
vn -0.0000 1.0000 -0.0000
vn 1.0000 -0.0000 -0.0000
vn -0.0000 -0.0000 1.0000
vn -0.0000 -1.0000 -0.0000
vn -0.0000 -0.0000 -1.0000
vt 0.375000 0.000000
vt 0.625000 0.000000
vt 0.625000 0.250000
vt 0.375000 0.250000
vt 0.875000 0.500000
vt 0.625000 0.500000
vt 0.375000 0.500000
vt 0.625000 0.750000
vt 0.375000 0.750000
vt 0.625000 1.000000
vt 0.375000 1.000000
vt 0.125000 0.500000
vt 0.125000 0.750000
vt 0.875000 0.750000
vt 0.244979 0.500000
vt 0.755021 0.500000
vt 0.625000 0.369979
vt 0.375000 0.369979
vt 0.780365 0.500000
vt 0.219635 0.500000
vt 0.375000 0.344634
vt 0.625000 0.344634
s 0
f 1/1/1 2/2/1 4/3/1 3/4/1
f 4/5/2 8/6/2 12/6/2 10/5/2
f 7/7/3 8/6/3 6/8/3 5/9/3
f 5/9/4 6/8/4 2/10/4 1/11/4
f 3/12/5 7/7/5 5/9/5 1/13/5
f 8/6/2 4/5/2 2/14/2 6/8/2
f 11/7/5 9/12/5 13/12/5 15/7/5
f 3/4/1 4/3/1 10/3/1 9/4/1
f 8/6/3 7/7/3 11/7/3 12/6/3
f 7/7/5 3/12/5 9/12/5 11/7/5
f 14/5/2 16/6/2 20/6/2 18/5/2
f 10/5/2 12/6/2 16/6/2 14/5/2
f 9/4/1 10/3/1 14/3/1 13/4/1
f 12/6/3 11/7/3 15/7/3 16/6/3
f 23/7/5 19/7/5 31/7/5 33/7/5
f 14/5/2 18/5/2 28/5/2 26/5/2
f 15/7/5 19/7/5 23/7/5 21/7/5
f 15/7/5 13/12/5 17/12/5 19/7/5
f 22/6/3 21/7/3 23/7/3 24/6/3
f 20/6/2 24/6/2 34/6/2 32/6/2
f 16/6/4 15/7/4 21/7/4 22/6/4
f 20/6/2 16/6/2 22/6/2 24/6/2
f 25/4/1 26/3/1 28/3/1 27/4/1
f 13/4/4 14/3/4 26/3/4 25/4/4
f 17/12/5 13/12/5 25/12/5 27/12/5
f 18/3/6 17/4/6 27/4/6 28/3/6
f 98/15/5 29/12/5 99/12/5 102/15/5
f 31/7/6 32/6/6 34/6/6 33/7/6
f 19/7/5 17/12/5 29/12/5 98/15/5 31/7/5
f 18/5/2 20/6/2 32/6/2 97/16/2 30/5/2
f 17/4/1 18/3/1 30/3/1 29/4/1
f 34/6/2 24/6/2 36/6/2 38/6/2
f 41/7/5 37/7/5 129/7/5 131/7/5
f 33/7/6 34/6/6 38/6/6 37/7/6
f 23/7/5 33/7/5 37/7/5 35/7/5
f 24/6/4 23/7/4 35/7/4 36/6/4
f 39/7/5 41/7/5 45/7/5 43/7/5
f 38/6/2 36/6/2 40/6/2 42/6/2
f 35/7/5 37/7/5 41/7/5 39/7/5
f 35/7/5 39/7/5 49/7/5 47/7/5
f 44/6/3 43/7/3 45/7/3 46/6/3
f 40/6/4 39/7/4 43/7/4 44/6/4
f 37/7/1 38/6/1 130/6/1 129/7/1
f 42/6/2 40/6/2 44/6/2 46/6/2
f 50/6/2 48/6/2 52/6/2 54/6/2
f 39/7/3 40/6/3 50/6/3 49/7/3
f 40/6/2 36/6/2 48/6/2 50/6/2
f 36/6/1 35/7/1 47/7/1 48/6/1
f 52/6/4 51/7/4 53/7/4 54/6/4
f 48/6/6 47/7/6 55/7/6 56/6/6
f 47/7/5 49/7/5 53/7/5 51/7/5
f 50/6/2 54/6/2 62/6/2 60/6/2
f 56/6/1 55/7/1 57/7/1 58/6/1
f 47/7/5 51/7/5 57/7/5 55/7/5
f 52/6/2 48/6/2 56/6/2 58/6/2
f 51/7/4 52/6/4 58/6/4 57/7/4
f 59/7/6 60/6/6 64/6/6 63/7/6
f 54/6/4 53/7/4 61/7/4 62/6/4
f 49/7/6 50/6/6 60/6/6 59/7/6
f 53/7/5 49/7/5 59/7/5 61/7/5
f 65/7/5 63/7/5 67/7/5 69/7/5
f 61/7/5 59/7/5 63/7/5 65/7/5
f 62/6/4 61/7/4 65/7/4 66/6/4
f 60/6/2 62/6/2 66/6/2 64/6/2
f 70/6/2 74/6/2 80/6/2 78/6/2
f 70/6/2 66/6/2 72/6/2 74/6/2
f 64/6/2 66/6/2 70/6/2 68/6/2
f 63/7/6 64/6/6 68/6/6 67/7/6
f 72/6/4 71/7/4 73/7/4 74/6/4
f 66/6/1 65/7/1 71/7/1 72/6/1
f 65/7/5 69/7/5 73/7/5 71/7/5
f 73/7/5 69/7/5 77/7/5 79/7/5
f 75/7/3 76/6/3 78/6/3 77/7/3
f 77/7/3 78/6/3 80/6/3 79/7/3
f 68/6/2 70/6/2 78/6/2 76/6/2
f 68/6/2 76/6/2 84/6/2 82/6/2
f 74/6/4 73/7/4 79/7/4 80/6/4
f 69/7/5 67/7/5 75/7/5 77/7/5
f 81/7/4 82/6/4 94/6/4 93/7/4
f 67/7/1 68/6/1 82/6/1 81/7/1
f 76/6/3 75/7/3 83/7/3 84/6/3
f 75/7/5 67/7/5 81/7/5 83/7/5
f 87/7/5 85/7/5 89/7/5 91/7/5
f 83/7/5 81/7/5 85/7/5 87/7/5
f 84/6/3 83/7/3 87/7/3 88/6/3
f 82/6/2 84/6/2 88/6/2 86/6/2
f 89/7/6 90/6/6 92/6/6 91/7/6
f 88/6/3 87/7/3 91/7/3 92/6/3
f 86/6/2 88/6/2 92/6/2 90/6/2
f 85/7/1 86/6/1 90/6/1 89/7/1
f 93/7/1 94/6/1 96/6/1 95/7/1
f 82/6/2 86/6/2 96/6/2 94/6/2
f 86/6/6 85/7/6 95/7/6 96/6/6
f 85/7/5 81/7/5 93/7/5 95/7/5
f 101/17/3 102/18/3 106/18/3 105/17/3
f 98/18/6 97/17/6 32/6/6 31/7/6
f 97/17/3 98/18/3 102/18/3 101/17/3
f 30/5/2 97/16/2 101/16/2 100/5/2
f 29/4/1 30/3/1 100/3/1 99/4/1
f 103/12/5 109/12/5 115/12/5 111/12/5
f 102/15/5 99/12/5 103/12/5 106/15/5
f 100/5/2 101/16/2 105/16/2 104/5/2
f 103/12/5 99/12/5 107/12/5 109/12/5
f 107/4/1 108/3/1 110/3/1 109/4/1
f 106/15/5 103/12/5 111/12/5 114/15/5
f 100/5/2 104/5/2 110/5/2 108/5/2
f 99/4/4 100/3/4 108/3/4 107/4/4
f 119/16/2 113/16/2 125/16/2 127/16/2
f 111/12/5 115/12/5 121/12/5 117/12/5
f 104/5/2 105/16/2 113/16/2 112/5/2
f 109/4/1 110/3/1 116/3/1 115/4/1
f 110/5/2 104/5/2 112/5/2 116/5/2
f 106/15/5 114/15/5 126/15/5 124/15/5
f 156/5/2 122/5/2 162/5/2 168/5/2 164/5/2
f 118/5/2 158/19/2 166/19/2 160/5/2
f 114/15/5 111/12/5 117/12/5 157/20/5 120/15/5
f 116/5/2 112/5/2 118/5/2 122/5/2
f 115/4/4 116/3/4 154/3/4 153/4/4
f 112/5/2 113/16/2 119/16/2 158/19/2 118/5/2
f 125/17/3 126/18/3 128/18/3 127/17/3
f 123/17/3 124/18/3 126/18/3 125/17/3
f 120/18/6 119/17/6 127/17/6 128/18/6
f 114/15/5 120/15/5 128/15/5 126/15/5
f 105/17/4 106/18/4 124/18/4 123/17/4
f 113/16/2 105/16/2 123/16/2 125/16/2
f 130/6/2 132/6/2 138/6/2 136/6/2
f 134/6/3 133/7/3 139/7/3 140/6/3
f 45/7/5 41/7/5 131/7/5 133/7/5
f 46/6/3 45/7/3 133/7/3 134/6/3
f 42/6/2 46/6/2 134/6/2 132/6/2
f 38/6/2 42/6/2 132/6/2 130/6/2
f 136/6/2 138/6/2 148/6/2 146/6/2
f 143/7/1 144/6/1 152/6/1 151/7/1
f 129/7/4 130/6/4 142/6/4 141/7/4
f 133/7/5 131/7/5 137/7/5 139/7/5
f 131/7/5 129/7/5 135/7/5 137/7/5
f 132/6/2 134/6/2 140/6/2 138/6/2
f 141/7/1 142/6/1 144/6/1 143/7/1
f 135/7/5 129/7/5 141/7/5 143/7/5
f 140/6/3 139/7/3 149/7/3 150/6/3
f 130/6/2 136/6/2 144/6/2 142/6/2
f 145/7/6 146/6/6 148/6/6 147/7/6
f 147/7/6 148/6/6 150/6/6 149/7/6
f 146/6/6 145/7/6 151/7/6 152/6/6
f 135/7/5 143/7/5 151/7/5 145/7/5
f 139/7/5 137/7/5 147/7/5 149/7/5
f 137/7/5 135/7/5 145/7/5 147/7/5
f 144/6/2 136/6/2 146/6/2 152/6/2
f 138/6/2 140/6/2 150/6/2 148/6/2
f 153/4/1 154/3/1 156/3/1 155/4/1
f 121/12/5 115/12/5 153/12/5 155/12/5
f 122/5/2 118/5/2 160/5/2 162/5/2
f 116/5/2 122/5/2 156/5/2 154/5/2
f 168/5/2 162/5/2 172/5/2 176/5/2
f 157/21/6 158/22/6 119/17/6 120/18/6
f 167/4/1 168/3/1 176/3/1 175/4/1
f 166/22/3 165/21/3 173/21/3 174/22/3
f 158/22/3 157/21/3 165/21/3 166/22/3
f 117/12/5 121/12/5 161/12/5 159/12/5
f 121/12/5 155/12/5 163/12/5 167/12/5 161/12/5
f 157/20/5 117/12/5 159/12/5 165/20/5
f 155/4/1 156/3/1 164/3/1 163/4/1
f 169/4/6 170/3/6 174/22/6 173/21/6
f 168/3/6 167/4/6 163/4/6 164/3/6
f 170/3/6 169/4/6 177/4/6 178/3/6
f 176/5/2 172/5/2 180/5/2 182/5/2
f 159/12/5 161/12/5 171/12/5 177/12/5 169/12/5
f 165/20/5 159/12/5 169/12/5 173/20/5
f 160/5/2 166/19/2 174/19/2 170/5/2
f 161/12/5 167/12/5 175/12/5 171/12/5
f 162/5/2 160/5/2 170/5/2 178/5/2 172/5/2
f 183/12/5 179/12/5 185/12/5 189/12/5
f 172/5/2 178/5/2 184/5/2 180/5/2
f 184/3/3 183/4/3 189/4/3 190/3/3
f 175/4/1 176/3/1 182/3/1 181/4/1
f 178/3/3 177/4/3 183/4/3 184/3/3
f 171/12/5 175/12/5 181/12/5 179/12/5
f 177/12/5 171/12/5 179/12/5 183/12/5
f 187/4/4 188/3/4 208/3/4 207/4/4
f 186/5/2 190/5/2 196/5/2 192/5/2
f 182/5/2 180/5/2 186/5/2 188/5/2
f 180/5/2 184/5/2 190/5/2 186/5/2
f 181/4/1 182/3/1 188/3/1 187/4/1
f 179/12/5 181/12/5 187/12/5 185/12/5
f 195/12/5 191/12/5 197/12/5 201/12/5
f 196/3/4 195/4/4 203/4/4 204/3/4
f 185/12/5 187/12/5 193/12/5 191/12/5
f 190/3/3 189/4/3 195/4/3 196/3/3
f 189/12/5 185/12/5 191/12/5 195/12/5
f 188/5/2 186/5/2 192/5/2 194/5/2
f 198/3/6 197/4/6 199/4/6 200/3/6
f 202/3/6 201/4/6 197/4/6 198/3/6
f 194/5/2 192/5/2 198/5/2 200/5/2
f 192/5/2 196/5/2 202/5/2 198/5/2
f 200/3/6 199/4/6 211/4/6 212/3/6
f 191/12/5 193/12/5 199/12/5 197/12/5
f 204/3/3 203/4/3 205/4/3 206/3/3
f 195/12/5 201/12/5 205/12/5 203/12/5
f 201/4/6 202/3/6 206/3/6 205/4/6
f 202/5/2 196/5/2 204/5/2 206/5/2
f 207/4/1 208/3/1 210/3/1 209/4/1
f 209/4/1 210/3/1 212/3/1 211/4/1
f 194/5/2 200/5/2 212/5/2 210/5/2
f 193/12/5 187/12/5 207/12/5 209/12/5
f 199/12/5 193/12/5 209/12/5 211/12/5
f 188/5/2 194/5/2 210/5/2 208/5/2
