# Blender 4.5.3 LTS
# www.blender.org
mtllib lower.mtl
o lower_corridor
v -20.655359 11.900000 17.963411
v -20.655359 12.100000 17.963411
v 6.303260 11.900000 17.963411
v 6.303260 12.100000 17.963411
v 6.303260 11.900000 15.963411
v 6.303260 12.100000 15.963411
v -20.655359 11.900000 7.218646
v -20.655359 12.100000 7.218643
v 6.303260 11.900000 5.719809
v 6.303260 12.100000 5.719809
v -20.655359 11.900000 -4.787203
v -20.655359 12.100000 -4.787203
v 6.303260 11.900000 -4.787203
v 6.303260 12.100000 -4.787203
v 63.257698 11.900000 5.719809
v 63.257698 12.100000 5.719809
v 63.257698 11.900000 -4.787203
v 63.257698 12.100000 -4.787203
v -68.447922 11.900000 17.963411
v -68.447922 12.100000 17.963411
v -68.447922 11.900000 7.218646
v -68.447922 12.100000 7.218643
v -107.467270 11.900000 17.963411
v -107.467270 12.100000 17.963411
v -107.467270 11.900000 7.218646
v -107.467270 12.100000 7.218643
v -77.633400 12.100000 17.963411
v -77.633415 11.900000 17.963411
v -107.467270 11.900000 22.915462
v -107.467270 12.100000 22.915462
v -77.633400 12.100000 22.915462
v -77.633415 11.900000 22.915462
v -91.385437 12.100000 22.915462
v -91.385437 11.900000 22.915462
v -107.467270 11.900000 28.288965
v -107.467270 12.100000 28.288965
v -91.385437 12.100000 28.288965
v -91.385437 11.900000 28.288965
v -38.163277 11.900000 17.963411
v -38.163277 12.100000 17.963411
v -30.731976 12.100000 17.963411
v -30.731976 11.900000 17.963411
v -38.163277 11.900000 28.605053
v -38.163277 12.100000 28.605053
v -30.731976 12.100000 28.605053
v -30.731976 11.900000 28.605053
v 8.461952 12.100000 -4.787203
v 8.461950 11.900000 -4.787203
v -20.655359 11.900000 -10.898245
v -20.655359 12.100000 -10.898245
v 6.303260 11.900000 -10.898245
v 6.303260 12.100000 -10.898245
v 8.461952 12.100000 -10.898245
v 8.461950 11.900000 -10.898245
v -0.162863 12.100000 -10.898245
v -0.162859 11.900000 -10.898245
v 0.658540 11.900000 -10.898245
v 0.658539 12.100000 -10.898245
v -20.655359 11.900000 -20.802347
v -20.655359 12.100000 -20.802347
v -0.162863 12.100000 -20.802347
v -0.162859 11.900000 -20.802347
v -12.057755 11.900000 -29.020643
v -12.057755 12.100000 -29.020643
v -0.162863 12.100000 -29.020643
v -0.162859 11.900000 -29.020643
v -38.163277 11.900000 18.654480
v -38.163277 12.100000 18.654478
v -41.103760 11.900000 28.605053
v -41.103760 12.100000 28.605053
v -41.103760 11.900000 18.654480
v -41.103760 12.100000 18.654478
vn -0.0000 -0.0000 1.0000
vn 1.0000 -0.0000 -0.0000
vn -0.0000 -1.0000 -0.0000
vn -0.0000 1.0000 -0.0000
vn -1.0000 -0.0000 -0.0000
vn -0.0000 -0.0000 -1.0000
vn 1.0000 -0.0001 -0.0000
vn -0.6910 -0.0000 -0.7229
vt 0.375000 1.000000
vt 0.625000 1.000000
vt 0.625000 0.500000
vt 0.375000 0.500000
vt 0.625000 0.750000
vt 0.375000 0.750000
vt 0.125000 0.750000
vt 0.125000 0.631929
vt 0.125000 0.500000
vt 0.875000 0.500000
vt 0.875000 0.631929
vt 0.875000 0.750000
vt 0.375000 0.118071
vt 0.625000 0.118071
vt 0.625000 0.250000
vt 0.375000 0.250000
vt 0.125000 0.750000
vt 0.625000 0.000000
vt 0.375000 0.000000
vt 0.375000 1.000000
vt 0.875000 0.750000
vt 0.315037 0.500000
vt 0.322654 0.500000
vt 0.677346 0.500000
vt 0.684963 0.500000
vt 0.375000 0.440037
vt 0.625000 0.440037
vt 0.625000 0.447654
vt 0.375000 0.447654
s 0
f 1/1/1 2/2/1 41/2/1 42/1/1
f 6/3/2 5/4/2 9/4/2 10/3/2
f 5/4/2 6/3/2 4/5/2 3/6/2
f 3/6/1 4/5/1 2/2/1 1/1/1
f 1/7/3 7/8/3 11/9/3 13/4/3 9/4/3 5/4/3 3/6/3
f 10/3/1 9/4/1 15/4/1 16/3/1
f 48/4/3 13/4/3 51/4/3 54/4/3
f 6/3/4 10/3/4 14/3/4 12/10/4 8/11/4 2/12/4 4/5/4
f 7/13/5 8/14/5 12/15/5 11/16/5
f 16/3/2 15/4/2 17/4/2 18/3/2
f 9/4/3 13/4/3 48/4/3 17/4/3 15/4/3
f 14/3/4 10/3/4 16/3/4 18/3/4 47/3/4
f 11/16/5 12/15/5 50/15/5 49/16/5
f 21/8/3 19/7/3 28/17/3 23/7/3 25/8/3
f 7/8/3 1/7/3 42/7/3 39/7/3 19/7/3 21/8/3
f 2/12/4 8/11/4 22/11/4 20/12/4 40/12/4 41/12/4
f 8/14/6 7/13/6 21/13/6 22/14/6
f 24/18/5 26/14/5 25/13/5 23/19/5
f 19/1/1 20/2/1 27/2/1 28/20/1
f 20/12/4 22/11/4 26/11/4 24/12/4 27/12/4
f 22/14/6 21/13/6 25/13/6 26/14/6
f 32/20/1 31/2/1 33/2/1 34/1/1
f 28/20/7 27/2/7 31/2/7 32/20/7
f 27/12/4 24/12/4 30/12/4 33/12/4 31/12/4
f 23/7/3 28/17/3 32/17/3 34/7/3 29/7/3
f 24/18/5 23/19/5 29/19/5 30/18/5
f 38/1/1 37/2/1 36/2/1 35/1/1
f 29/7/3 34/7/3 38/7/3 35/7/3
f 34/1/2 33/2/2 37/2/2 38/1/2
f 33/12/4 30/12/4 36/12/4 37/12/4
f 30/18/5 29/19/5 35/19/5 36/18/5
f 39/1/1 40/2/1 20/2/1 19/1/1
f 46/1/1 45/2/1 44/2/1 43/1/1
f 41/12/4 40/12/4 68/21/4 44/12/4 45/12/4
f 39/7/3 42/7/3 46/7/3 43/7/3 67/7/3
f 40/2/5 39/1/5 67/1/5 68/2/5
f 42/1/2 41/2/2 45/2/2 46/1/2
f 49/16/5 50/15/5 60/15/5 59/16/5
f 48/4/6 47/3/6 18/3/6 17/4/6
f 51/4/6 52/3/6 53/3/6 54/4/6
f 13/4/3 11/9/3 49/9/3 56/22/3 57/23/3 51/4/3
f 47/3/2 48/4/2 54/4/2 53/3/2
f 14/3/4 47/3/4 53/3/4 52/3/4
f 12/10/4 14/3/4 52/3/4 58/24/4 55/25/4 50/10/4
f 60/10/4 61/25/4 65/25/4 64/10/4
f 56/26/6 55/27/6 58/28/6 57/29/6
f 57/29/6 58/28/6 52/3/6 51/4/6
f 55/27/2 56/26/2 62/26/2 61/27/2
f 56/22/3 49/9/3 59/9/3 62/22/3
f 50/10/4 55/25/4 61/25/4 60/10/4
f 63/16/6 64/15/6 65/27/6 66/26/6
f 59/16/8 60/15/8 64/15/8 63/16/8
f 61/27/2 62/26/2 66/26/2 65/27/2
f 62/22/3 59/9/3 63/9/3 66/22/3
f 72/2/5 71/1/5 69/1/5 70/2/5
f 68/2/6 67/1/6 71/1/6 72/2/6
f 43/1/1 44/2/1 70/2/1 69/1/1
f 67/7/3 43/7/3 69/7/3 71/7/3
f 44/12/4 68/21/4 72/21/4 70/12/4
