# Blender 4.5.3 LTS
# www.blender.org
mtllib stairs.mtl
o stairs
v -59.038242 -0.100000 39.342224
v -59.038242 0.100000 39.342224
v -59.038242 5.900000 29.268837
v -59.038242 6.100000 29.268837
v -50.079887 -0.100000 39.342224
v -50.079887 0.100000 39.342224
v -50.079887 5.900000 29.268837
v -50.079887 6.100000 29.268837
v -59.038242 5.900000 28.540539
v -59.038242 6.100000 28.540539
v -50.079887 5.900000 28.540539
v -50.079887 6.100000 28.540539
v -59.038242 5.900000 18.649231
v -59.038242 6.100000 18.649231
v -50.079887 5.900000 18.649231
v -50.079887 6.100000 18.649231
v -41.120125 11.900001 28.540539
v -41.120125 12.100000 28.540539
v -41.120125 11.900001 18.649231
v -41.120125 12.100000 18.649231
vn -1.0000 -0.0000 -0.0000
vn -0.0000 1.0000 -0.0000
vn 1.0000 -0.0000 -0.0000
vn -0.0000 -0.0000 1.0000
vn -0.0000 -0.8591 -0.5117
vn -0.0000 0.8591 0.5117
vn -0.0000 -1.0000 -0.0000
vn -0.0000 -0.0000 -1.0000
vn 0.5564 -0.8309 -0.0000
vn -0.5564 0.8309 -0.0000
vt 0.375000 0.000000
vt 0.625000 0.000000
vt 0.625000 0.250000
vt 0.375000 0.250000
vt 0.875000 0.500000
vt 0.625000 0.500000
vt 0.375000 0.500000
vt 0.625000 0.750000
vt 0.375000 0.750000
vt 0.625000 1.000000
vt 0.375000 1.000000
vt 0.125000 0.500000
vt 0.125000 0.750000
vt 0.875000 0.750000
s 0
f 1/1/1 2/2/1 4/3/1 3/4/1
f 4/5/2 8/6/2 12/6/2 10/5/2
f 7/7/3 8/6/3 6/8/3 5/9/3
f 5/9/4 6/8/4 2/10/4 1/11/4
f 3/12/5 7/7/5 5/9/5 1/13/5
f 8/6/6 4/5/6 2/14/6 6/8/6
f 10/5/2 12/6/2 16/6/2 14/5/2
f 3/4/1 4/3/1 10/3/1 9/4/1
f 8/6/3 7/7/3 11/7/3 12/6/3
f 7/7/7 3/12/7 9/12/7 11/7/7
f 13/4/8 14/3/8 16/6/8 15/7/8
f 9/4/1 10/3/1 14/3/1 13/4/1
f 11/7/9 15/7/9 19/7/9 17/7/9
f 11/7/7 9/12/7 13/12/7 15/7/7
f 18/6/3 17/7/3 19/7/3 20/6/3
f 15/7/8 16/6/8 20/6/8 19/7/8
f 12/6/4 11/7/4 17/7/4 18/6/4
f 16/6/10 12/6/10 18/6/10 20/6/10
