# Blender 5.1.0
# www.blender.org
mtllib first_nodes.mtl
o Nodes.001
v 1.116227 4.000000 2.026794
v -6.133511 4.000000 2.026794
v -6.133511 4.000000 7.519653
v -6.133511 4.000000 12.363144
v 0.675890 4.000000 12.363144
v -6.133511 4.000000 0.567223
v -4.324385 4.000000 0.567223
v -14.182261 4.000000 7.519653
v -14.182261 4.000000 4.794743
v -16.562672 4.000000 7.519653
v -16.562672 4.000000 13.544823
v -16.562672 4.000000 -2.546547
v -16.562672 4.000000 -17.002432
v -16.562672 4.000000 -28.710987
v -22.379734 4.000000 -17.002432
v -16.592930 4.000000 -43.343987
v -14.140117 4.000000 -43.343987
v -14.140117 4.000000 -45.089035
v -12.950600 4.000000 -43.343987
v -22.379734 4.000000 -2.456150
v -22.379734 4.000000 -11.843992
v -22.379734 4.000000 0.000000
v -22.379734 6.000000 4.659225
v -26.952148 4.000000 0.000000
v -26.952148 4.000000 3.558098
v -20.132172 4.000000 3.558098
v -20.132172 4.000000 2.892731
v -28.639256 4.000000 3.558098
v -28.639256 4.000000 12.671169
v -22.893753 4.000000 3.558098
v -22.893753 4.000000 7.188133
v -34.914883 4.000000 12.671169
v -36.173450 4.000000 12.671169
v -41.818886 4.000000 12.671169
v -41.818886 4.000000 -1.107769
v -36.173450 4.000000 -1.065762
v -34.914883 4.000000 -1.094273
v -40.775867 4.000000 -1.107769
v -40.775867 4.000000 -3.145527
v -40.775867 4.000000 -14.151649
v -35.846928 4.000000 -16.988316
v -44.917751 4.000000 -14.151649
v -44.917751 4.000000 -16.974445
v -42.196293 4.000000 -16.974445
v -35.846928 4.000000 -29.517670
v -34.091278 4.000000 -16.988316
v -48.133934 4.000000 -1.107769
v -29.012127 4.000000 -2.456150
v -34.091278 4.000000 -29.517670
v -31.884338 4.000000 -29.517670
v -34.091278 4.000000 -3.448364
v -34.136452 4.000000 -43.343987
v -37.614754 4.000000 -43.343987
v -43.511124 4.000000 -43.343987
v -37.614754 4.000000 -39.797684
v -41.239403 4.000000 -39.797684
v -37.614754 4.000000 -33.637962
v -44.364670 4.000000 -33.637962
v -34.091278 4.000000 -33.637962
v -31.884338 4.000000 -27.136179
v -26.888062 4.000000 -27.136179
v -24.811317 4.000000 -31.377750
v -23.014927 4.000000 -31.377750
v -23.014927 4.000000 -34.497173
v -23.014927 4.000000 -36.461853
v -24.811317 4.000000 -33.942791
v -23.014927 4.000000 -38.000000
v -18.427391 4.000000 -38.000000
v -18.427391 4.000000 -35.741043
v -20.799999 4.000000 -38.000000
v -23.993332 4.000000 -38.000000
v -23.993332 4.000000 -39.888226
v -28.161972 4.000000 -38.000000
v -26.371185 4.000000 -33.942791
v -27.515026 4.000000 -33.942791
v -29.022667 4.000000 -33.942791
v -30.811630 4.000000 -33.942791
v -30.811630 4.000000 -36.617279
v -29.022667 4.000000 -35.740379
v -27.515026 4.000000 -35.805199
v -26.371185 4.000000 -35.487705
v -33.508316 4.000000 -38.232578
v -33.508316 5.000000 -40.869473
v -34.136452 4.500000 -41.805210
v -34.492916 5.000000 -40.869473
v -34.492916 6.000000 -38.362823
l 1 2
l 2 3
l 3 4
l 4 5
l 2 6
l 6 7
l 3 8
l 8 9
l 8 10
l 10 11
l 10 12
l 12 13
l 13 14
l 13 15
l 14 16
l 16 17
l 17 18
l 17 19
l 12 20
l 20 21
l 15 21
l 20 22
l 22 23
l 22 24
l 24 25
l 30 26
l 26 27
l 25 28
l 28 29
l 25 30
l 30 31
l 29 32
l 32 33
l 33 34
l 34 35
l 33 36
l 32 37
l 35 38
l 36 38
l 36 37
l 38 39
l 39 40
l 40 41
l 40 42
l 42 43
l 43 44
l 41 45
l 41 46
l 35 47
l 37 48
l 24 48
l 20 48
l 45 49
l 46 49
l 49 50
l 37 51
l 46 51
l 16 52
l 52 53
l 53 54
l 53 55
l 55 56
l 55 57
l 57 58
l 57 59
l 49 59
l 50 60
l 60 61
l 15 61
l 50 62
l 62 63
l 63 64
l 64 65
l 62 66
l 65 67
l 68 69
l 68 70
l 67 71
l 71 72
l 71 73
l 66 74
l 74 75
l 75 76
l 76 77
l 59 77
l 77 78
l 76 79
l 75 80
l 74 81
l 66 71
l 59 82
l 82 83
l 52 84
l 83 84
l 83 85
l 84 85
l 85 86
l 67 70
