# Blender 4.5.3 LTS
# www.blender.org
mtllib ground_nodes_2.mtl
o nodes
v -11.511278 1.267972 12.409416
v -11.652293 1.267972 9.077938
v -7.809636 1.267972 9.077938
v -7.827263 1.267972 10.634979
v -5.200859 1.267972 9.007431
v -5.236113 1.267972 10.634979
v -3.129702 1.267972 9.060310
v -3.129702 1.267972 10.634979
v -0.794142 1.267972 9.042685
v 4.159009 1.267972 9.060310
v 5.974576 1.267972 9.042685
v 12.284995 1.267972 9.148445
v 12.249742 1.267972 10.170803
v 12.284995 1.267972 4.760178
v 9.369104 1.267972 10.170803
v 15.517877 1.267972 10.170803
v 15.319510 1.267972 9.148445
v 15.242536 1.267972 4.760178
v 11.008513 1.267972 4.760178
v 6.110663 1.267972 4.760178
v 11.008513 1.267972 6.892078
v 11.008513 1.267972 2.087548
v -0.210334 1.267972 -2.278547
v -5.176857 1.267972 -2.278547
v 12.284995 1.267972 3.055151
v 14.712586 1.267972 3.055151
v 12.284995 1.267972 0.368026
v 16.487446 1.644918 0.368026
v 16.487446 1.729334 -0.646099
v 13.494290 2.074385 -0.646099
v 12.284995 1.267972 -4.759627
v 10.010505 1.267972 -4.759627
v 12.284995 1.267972 -10.277616
v 12.284995 1.267972 -15.223925
v 0.485703 1.267972 -10.277616
v 7.378723 1.267972 -15.223925
v -1.759862 1.267972 -10.277616
v 0.485703 1.267972 -7.811191
v -1.759862 1.267972 -7.730571
v -5.027015 1.267972 -10.277616
v -5.027015 1.267972 -15.579144
v -8.714115 1.267972 -10.277616
v -14.592442 1.267972 -10.277616
v -5.027015 1.267972 -6.483110
v -5.027015 1.267972 -4.819368
v -6.258592 1.267972 -6.483110
v -7.391551 1.267972 -4.819368
v -12.999104 1.267972 -2.278547
v -5.200859 1.267972 7.478329
v -7.059246 1.267972 7.478329
v -11.329353 1.267972 7.945971
v -11.001232 1.623291 6.037886
v -8.976507 2.272068 6.037886
v -5.200859 1.267972 4.748702
v -12.827770 1.267972 4.748702
v -12.779470 1.267972 9.077938
v -14.961926 1.267972 9.077938
v -12.779470 1.267972 7.100343
v -15.905368 1.267972 7.100343
v -15.905368 1.267972 -1.571730
v -15.905368 1.267972 -5.215769
v -13.339440 1.267972 -5.215769
v -10.782114 1.267972 -5.215769
v -13.339440 1.267972 -8.561893
v -10.465816 1.267972 -8.561893
v -14.592442 1.267972 -25.908916
v -14.592442 1.267972 -35.651730
v -18.460442 1.267972 -25.908916
v -11.796041 1.267972 -25.908916
v -10.456468 1.267972 -36.357834
v -14.592442 1.267972 -41.449841
v -14.592442 1.267972 -45.749943
v -18.994656 1.267972 -36.920677
v -17.653170 1.267972 -41.449841
v -21.073788 1.267972 -46.501984
v -23.669411 1.267972 -42.157822
v -23.669411 1.267972 -36.345654
v -25.312462 1.267972 -36.345654
v -20.960167 1.267972 -38.263828
v -17.536818 1.267972 -37.255821
v -16.371559 1.267972 -37.255821
v -16.371559 2.211028 -39.960567
l 1 2
l 2 3
l 3 4
l 3 5
l 5 6
l 5 7
l 7 8
l 7 9
l 9 10
l 10 11
l 11 12
l 12 13
l 12 14
l 13 15
l 13 16
l 12 17
l 14 18
l 14 19
l 19 20
l 19 21
l 19 22
l 20 23
l 23 24
l 14 25
l 25 26
l 25 27
l 27 28
l 28 29
l 29 30
l 27 31
l 31 32
l 31 33
l 33 34
l 33 35
l 34 36
l 35 37
l 35 38
l 37 39
l 37 40
l 40 41
l 36 41
l 40 42
l 42 43
l 40 44
l 44 45
l 44 46
l 45 47
l 24 45
l 24 48
l 5 49
l 49 50
l 50 51
l 2 51
l 51 52
l 52 53
l 49 54
l 24 54
l 54 55
l 2 56
l 56 57
l 56 58
l 55 58
l 58 59
l 59 60
l 60 61
l 61 62
l 48 55
l 48 62
l 48 54
l 24 55
l 62 63
l 62 64
l 64 65
l 43 64
l 43 66
l 66 67
l 66 68
l 66 69
l 67 70
l 67 71
l 71 72
l 67 73
l 71 74
l 73 74
l 74 75
l 75 76
l 76 77
l 77 78
l 73 77
l 73 79
l 77 79
l 73 80
l 80 81
l 81 82
