# Blender 5.1.0
# www.blender.org
mtllib ground_nodes.mtl
o nodes
v -11.441471 0.000000 12.409416
v -11.441471 0.000000 9.074734
v -7.818449 0.000000 9.074734
v -7.818449 0.000000 10.493731
v -5.124845 0.000000 9.074734
v -5.124845 0.000000 10.493731
v -3.129702 0.000000 9.074734
v -3.129702 0.000000 10.493731
v -0.794142 0.000000 9.074734
v 4.159009 0.000000 9.074734
v 5.974576 0.000000 9.074734
v 12.594817 0.000000 9.074734
v 12.594817 0.000000 10.493731
v 12.594817 0.000000 4.760178
v 10.285607 0.000000 10.493731
v 14.696233 0.000000 10.493731
v 14.696233 0.000000 9.074734
v 14.696233 0.000000 4.760178
v 11.008513 0.000000 4.760178
v 6.110664 0.000000 4.760178
v 11.008513 0.000000 6.892078
v 11.008513 0.000000 2.087548
v -0.210334 0.000000 -2.278547
v -4.906630 0.000000 -2.278547
v 12.594817 0.000000 3.055151
v 14.696233 0.000000 3.055151
v 12.594817 0.000000 0.368026
v 16.487446 0.376945 0.368026
v 16.487446 0.461361 -0.646099
v 13.494290 0.806412 -0.646099
v 12.594817 0.000000 -4.759627
v 10.010505 0.000000 -4.759627
v 12.594817 0.000000 -10.277616
v 12.594817 0.000000 -15.342332
v 0.485703 0.000000 -10.277616
v 7.378723 0.000000 -15.342332
v -1.759862 0.000000 -10.277616
v 0.485703 0.000000 -8.381881
v -1.759862 0.000000 -8.381881
v -4.906630 0.000000 -10.277616
v -4.906630 0.000000 -15.342332
v -8.714115 0.000000 -10.277616
v -14.592442 0.000000 -10.277616
v -4.906630 0.000000 -6.963184
v -4.906630 0.000000 -5.299441
v -6.825071 0.000000 -6.963184
v -6.825071 0.000000 -5.299441
v -12.846455 0.000000 -2.278548
v -5.124845 0.000000 7.634210
v -7.059246 0.000000 7.634210
v -10.928514 0.000000 7.634210
v -10.928514 0.355319 5.544598
v -8.976507 1.004094 5.544598
v -4.906630 0.000000 4.748702
v -12.846455 0.000000 4.748702
v -12.846455 0.000000 9.074734
v -14.961926 0.000000 9.074734
v -12.846455 -0.000000 7.100343
v -15.905368 -0.000000 7.100343
v -15.905368 -0.000000 -1.571730
v -15.905368 -0.000000 -5.215769
v -13.339440 -0.000000 -5.215769
v -10.623964 -0.000000 -5.215769
v -13.339440 -0.000000 -8.561893
v -10.623964 -0.000000 -8.561893
v -14.592442 0.000000 -25.908916
v -14.592442 0.000000 -36.179722
v -18.460442 0.000000 -25.908916
v -11.796041 0.000000 -25.908916
v -10.456468 0.000000 -36.179722
v -14.592442 0.000000 -42.026562
v -14.592442 0.000000 -45.749943
v -18.093063 0.000000 -36.618908
v -18.093063 0.000000 -42.026562
v -21.073788 0.000000 -46.501984
v -23.669411 0.000000 -42.157822
v -23.669411 0.000000 -36.345654
v -25.312462 0.000000 -36.345654
v -20.628551 0.000000 -38.828220
v -17.536818 0.000000 -37.437237
v -16.240120 0.000000 -37.437237
v -16.240120 0.943058 -39.960567
v -0.794142 0.000000 10.493731
v 4.159009 0.000000 10.493731
v 5.974576 0.000000 10.493731
l 1 2
l 3 4
l 3 5
l 5 6
l 5 7
l 7 8
l 7 9
l 9 10
l 10 11
l 11 12
l 12 13
l 12 14
l 13 15
l 13 16
l 12 17
l 14 18
l 14 19
l 19 20
l 19 21
l 19 22
l 20 23
l 23 24
l 14 25
l 25 26
l 25 27
l 27 28
l 28 29
l 29 30
l 27 31
l 31 32
l 31 33
l 33 34
l 33 35
l 34 36
l 35 37
l 35 38
l 37 39
l 37 40
l 40 41
l 36 41
l 40 42
l 42 43
l 40 44
l 44 45
l 44 46
l 45 47
l 24 45
l 24 48
l 5 49
l 49 50
l 50 51
l 2 51
l 51 52
l 52 53
l 49 54
l 24 54
l 54 55
l 2 56
l 56 57
l 56 58
l 55 58
l 58 59
l 59 60
l 60 61
l 61 62
l 48 55
l 48 62
l 48 54
l 24 55
l 62 63
l 62 64
l 64 65
l 43 64
l 43 66
l 66 67
l 66 68
l 66 69
l 67 70
l 67 71
l 71 72
l 67 73
l 71 74
l 73 74
l 74 75
l 75 76
l 76 77
l 77 78
l 73 77
l 73 79
l 77 79
l 73 80
l 80 81
l 81 82
l 9 83
l 10 84
l 11 85
