# Blender 5.1.0
# www.blender.org
mtllib lower_nodes.mtl
o Nodes
v -0.645782 2.000000 0.067026
v -3.130596 3.283479 0.067027
v -0.645782 2.000000 1.911154
v 2.355835 2.000000 1.911154
v -2.170134 2.000000 1.911154
v -2.170134 2.000000 4.927919
v -5.455824 2.000000 12.376390
v -8.779146 2.000000 12.376390
v -15.451717 2.000000 12.376390
v -22.504673 2.000000 12.376390
v -22.504673 2.000000 3.774303
v -25.130524 2.520745 3.774303
v -28.758514 2.520745 2.681222
v -28.758514 2.480035 4.683280
v -28.758514 2.000000 5.385677
v -28.758514 2.000000 8.996713
v -28.758514 3.273348 0.256207
v -20.176853 2.000000 3.774303
v -20.176853 2.000000 2.611921
v -18.216293 2.000000 3.774303
v -18.216293 2.000000 5.272831
v -17.175018 2.000000 5.272831
v -16.326145 2.000000 3.774303
v -13.949747 2.000000 3.774303
v -16.326145 2.000000 2.513964
v -11.182434 2.000000 2.513964
v -11.182434 2.000000 -3.211166
v -3.772083 2.000000 -3.211166
v -11.182434 2.000000 -6.603554
v -7.952843 2.000000 -15.890968
v -7.952843 2.000000 -21.083426
v -3.094793 2.000000 -15.890968
v -0.583399 2.000000 -3.211166
v -3.752945 2.000000 1.911154
v -7.050106 2.000000 -3.211166
v -2.993927 2.000000 -5.225807
v -2.993927 2.000000 -9.879124
v 0.768667 2.000000 -11.044780
v 0.768667 2.000000 -3.002363
v 0.729174 2.000000 0.067026
v 3.016315 2.000000 -11.044780
v 0.768667 2.000000 -15.881039
v 9.297056 2.000000 -11.044780
v 12.289902 2.000000 -11.044780
v 9.297056 2.000000 -5.711398
v 9.297056 2.000000 -2.036911
v 12.197464 2.000000 -5.711398
v 12.197464 2.000000 -2.772951
v 12.289902 2.000000 -16.197557
v 1.943443 2.000000 -22.212990
v 9.384602 2.000000 0.067026
v 11.667599 2.000000 0.067026
v 11.667599 2.000000 2.526968
v 13.660770 2.000000 0.521299
v 16.425053 3.287778 0.521299
v 0.768667 2.000000 -22.212990
v -4.408400 2.000000 -24.316412
v 0.805912 2.000000 -24.316412
v 0.805912 2.000000 -27.902479
v -0.695498 2.000000 -27.902479
v -0.695498 2.000000 -34.912613
v -5.203815 2.000000 -27.902479
v 0.805912 2.000000 -31.279013
v 0.805912 2.000000 -42.901558
v 2.347326 2.000000 -31.279013
v 9.264963 2.000000 -31.279013
v 9.264963 2.000000 -27.969580
v 2.347326 2.000000 -28.454298
v 2.347326 2.000000 -34.425255
v 2.347326 2.000000 -35.666985
v 7.426891 2.000000 -35.666985
v 2.347326 2.000000 -40.560547
v 8.788553 2.000000 -35.666985
v 13.538509 2.000000 -35.666985
v 13.538509 2.000000 -37.989113
v 8.788553 2.000000 -38.444321
v 7.426891 2.000000 -40.462959
v 9.359980 2.000000 -38.444321
v 12.041252 2.000000 -38.444321
v 9.359980 2.000000 -40.943214
v 12.041252 2.000000 -40.369286
v -1.558193 2.000000 -42.901558
v -5.456581 2.000000 -42.901558
v -9.616299 2.000000 -42.901558
v -14.206190 2.000000 -42.901558
v -15.554581 2.000000 -42.901558
v -17.103930 2.000000 -41.961884
v -14.206190 2.000000 -44.333832
v -9.616299 2.000000 -44.100357
v -5.456581 2.000000 -44.414742
v -1.558193 2.000000 -44.484772
v 2.494667 2.000000 -42.901558
v 6.597855 2.000000 -42.901558
v 10.770319 2.000000 -42.901558
v 12.271103 2.000000 -42.901558
v 12.041252 2.000000 -41.383080
v 13.956306 2.000000 -41.383080
v 16.615055 3.942044 -41.383080
v 14.842873 2.000000 -42.901558
v 10.770319 2.000000 -44.946136
v 6.597855 2.000000 -44.543594
v 2.494667 2.000000 -44.833412
v -17.365225 2.000000 -40.879440
v -18.650406 2.000000 -40.636841
v -18.650406 3.532391 -38.242630
l 1 2
l 3 1
l 4 3
l 3 5
l 5 6
l 6 7
l 7 8
l 8 9
l 9 10
l 10 11
l 11 12
l 12 13
l 13 14
l 14 15
l 15 16
l 13 17
l 11 18
l 18 19
l 18 20
l 20 21
l 21 22
l 20 23
l 23 24
l 23 25
l 25 26
l 26 27
l 35 28
l 27 29
l 29 30
l 30 31
l 30 32
l 28 33
l 1 33
l 5 34
l 28 34
l 27 35
l 35 36
l 36 37
l 37 38
l 38 39
l 1 40
l 39 40
l 38 41
l 38 42
l 32 42
l 41 43
l 43 44
l 43 45
l 45 46
l 45 47
l 47 48
l 44 49
l 49 50
l 40 51
l 46 51
l 51 52
l 52 53
l 52 54
l 54 55
l 42 56
l 50 56
l 31 57
l 57 58
l 56 58
l 58 59
l 59 60
l 60 61
l 60 62
l 59 63
l 63 64
l 63 65
l 65 66
l 66 67
l 65 68
l 65 69
l 69 70
l 70 71
l 70 72
l 71 73
l 73 74
l 74 75
l 73 76
l 71 77
l 76 78
l 78 79
l 78 80
l 79 81
l 64 82
l 82 83
l 83 84
l 84 85
l 85 86
l 86 87
l 85 88
l 84 89
l 83 90
l 82 91
l 64 92
l 92 93
l 93 94
l 94 95
l 81 96
l 95 96
l 96 97
l 97 98
l 95 99
l 94 100
l 93 101
l 92 102
l 87 103
l 103 104
l 104 105
