# Blender 4.5.3 LTS
# www.blender.org
mtllib second_nodes.mtl
o Nodes.002
v -20.620985 6.121951 9.045176
v -20.620985 6.121951 6.657400
v -23.787441 6.121951 9.045176
v -16.206493 6.121951 9.045176
v -14.455229 6.121951 9.045176
v -13.137939 6.121951 9.045176
v -10.539064 6.121951 9.045176
v -14.455229 6.121951 6.399254
v -14.455229 6.121951 4.155878
v -14.455229 6.121951 1.243160
v -14.455229 6.121951 -6.656664
v -14.455229 6.121951 -11.331375
v -14.455229 6.121951 -15.638584
v -5.217230 6.121951 9.045176
v -3.051701 6.121951 9.045176
v 0.259705 6.121951 9.045176
v 3.570663 6.121951 9.045176
v 5.365414 6.121951 9.045176
v 12.115919 6.121951 9.045176
v 12.115919 6.121951 10.163376
v 12.115919 6.121951 6.442543
v 12.115919 6.121951 4.864454
v 7.502901 6.121951 4.864454
v 12.115919 6.121951 3.260574
v 12.115919 6.121951 0.117605
v 12.115919 6.121951 -3.157360
v 12.115919 6.121951 -5.596243
v 12.115919 6.121951 -6.956188
v 12.115919 6.121951 -7.974142
v 8.902349 6.121951 -6.956188
v 6.779427 6.121951 -6.956188
v 2.452909 6.121951 -6.956188
v -0.596413 6.121951 -6.956188
v -3.087971 6.121951 -6.956188
v 12.115919 6.121951 -13.603497
v 12.115919 6.121951 -16.239666
v 12.115919 6.121951 -18.870964
v 12.115919 6.121951 -21.434723
v 12.115919 6.121951 -23.957714
v 12.115919 6.121951 -26.848969
v 9.576193 6.121951 -26.848969
v 7.225948 6.121951 -26.848969
v 12.115919 6.121951 -30.215080
v 12.115919 6.121951 -31.553078
v 12.115919 6.121951 -33.616302
v 12.115919 6.121951 -37.279835
v 12.115919 6.121951 -41.303799
v 12.115919 6.121951 -43.032780
v 8.613300 6.121951 -41.303799
v 5.429487 6.121951 -41.303799
v 2.968338 6.121951 -41.303799
v 0.565334 6.121951 -41.303799
v -2.128784 6.121951 -41.303799
v -6.464919 6.121951 -41.303799
v -7.688941 6.121951 -41.303799
v -9.827780 6.121951 -41.303799
v -14.439575 6.121951 -41.303799
v -14.439575 6.121951 -35.898277
v -14.439575 6.121951 -31.311985
v -14.439575 6.121951 -29.471542
v -14.439575 6.121951 -26.683861
v -14.439575 6.121951 -22.288731
v -14.439575 6.121951 -19.782574
v -14.439575 6.121951 -17.398220
v -7.729513 6.121951 -17.398220
v -6.159852 6.121951 -17.398220
v -8.731223 6.121951 -35.898277
v -3.863756 6.121951 -35.898277
v 3.398201 6.121951 -35.898277
v 3.398201 6.121951 -34.577171
v 3.398201 6.121951 -32.794033
v 3.055494 6.121951 -31.103676
v -9.064740 6.121951 -33.822506
v -20.333221 6.121951 -35.898277
v -20.333221 6.121951 -37.361359
v -20.333221 6.121951 -38.880196
v -23.378965 6.121951 -38.880741
v -23.378965 6.121951 -40.186634
v -26.393436 6.121951 -39.303726
v -26.393436 6.121951 -41.029545
v -29.603701 6.121951 -39.303726
v -32.036697 6.121951 -39.303726
v -33.234947 6.121951 -39.303726
v -35.052414 6.121951 -39.303726
v -36.698147 6.121951 -39.303726
v -39.705139 6.121951 -39.303726
v -41.068748 6.121951 -39.303726
v -43.098282 6.121951 -39.303726
v -45.288906 6.121951 -39.303726
v -41.068748 6.121951 -35.362240
v -41.068748 6.121951 -33.650433
v -41.068748 6.121951 -30.072353
v -41.068748 6.121951 -26.756878
v -41.068748 6.121951 -25.045498
v -41.068748 6.121951 -22.705898
v -41.068748 6.121951 -20.587402
v -41.068748 6.121951 -19.457005
v -41.068748 6.121951 -16.259693
v -41.068748 6.121951 -15.664177
v -41.068748 6.121951 -12.079121
v -41.068748 6.121951 -8.552704
v -41.068748 6.121951 -7.256763
v -41.068748 6.121951 -3.526922
v -41.068748 6.121951 -2.350899
v -41.068748 6.121951 -0.040306
v -18.343269 6.121951 6.657400
v -18.343269 6.121951 4.599386
v -19.267467 6.121951 2.196735
v -41.068748 6.121951 2.402908
v -41.068748 6.121951 5.363482
v -40.463779 6.121951 6.882198
v -43.417374 6.121951 6.623022
v -45.838234 6.121951 6.623022
v -36.229782 6.121951 6.882198
v -31.434805 6.121951 6.882198
v -29.963879 6.121951 6.882198
v -26.470196 6.121951 6.882198
v -25.910271 6.121951 6.882198
v -23.787441 6.121951 11.759778
v -20.620985 6.121951 11.954623
v -16.206493 6.121951 11.978486
v -13.137939 6.121951 11.614601
v -10.539064 6.121951 11.678128
v -5.217230 6.121951 7.249403
v -3.051701 6.121951 11.216882
v 1.285297 6.121951 11.216882
v 0.259705 6.121951 6.520178
v 3.570663 6.121951 11.857201
v 5.365414 6.121951 11.604555
v 9.837217 6.121951 10.163376
v 15.116945 6.121951 10.163376
v 14.161432 6.121951 9.045176
v 15.469503 6.121951 6.442543
v 10.669889 6.121951 6.442543
v 10.699949 6.121951 3.260574
v 15.148626 6.121951 3.260574
v 13.944166 6.121951 0.400410
v 10.040781 6.121951 -0.651354
v -0.596413 6.121951 -5.338161
v 14.270887 6.121951 -3.157360
v 14.525465 6.121951 -5.596243
v 14.976641 6.121951 -7.974142
v 8.902349 6.121951 -9.266285
v 6.779427 6.121951 -9.395947
v 2.452909 6.121951 -9.980061
v -2.899067 6.121951 -17.398220
v 12.115919 6.121951 -10.566383
v 14.194223 6.121951 -10.566383
v 14.872530 6.121951 -13.603497
v 15.039736 6.121951 -16.239666
v 9.095547 6.121951 -16.239666
v 15.195387 6.121951 -18.870964
v 9.682096 6.121951 -18.870964
v 8.221972 6.121951 -20.782040
v 7.193949 6.121951 -20.782040
v 6.653978 6.121951 -18.059345
v 6.653978 6.121951 -16.437466
v 15.197924 6.121951 -21.434723
v 14.988234 6.121951 -23.957714
v 14.522356 6.121951 -26.848969
v 14.240641 6.121951 -30.215080
v 9.538076 6.121951 -31.553078
v 15.097113 6.121951 -33.616302
v 14.305239 6.121951 -37.279835
v 9.886091 6.121951 -36.625298
v 14.443003 6.121951 -41.303799
v 14.648039 6.121951 -43.032780
v 12.115919 6.121951 -45.283718
v 9.576193 6.121951 -24.708324
v 9.576193 6.121951 -29.129059
v 5.187090 6.121951 -26.848969
v 8.613300 6.121951 -42.585140
v 8.613300 6.121951 -39.157036
v 5.429487 6.121951 -43.464367
v 2.968338 6.121951 -43.427433
v 0.565334 6.121951 -43.068829
v -2.128784 6.121951 -43.976139
v -5.903810 6.121951 -43.836620
v -7.688941 6.121951 -43.903385
v -9.827780 6.121951 -43.762341
v -14.439575 6.121951 -43.947926
v -8.731223 6.121951 -38.191395
v -11.779944 6.121951 -33.822506
v -3.625656 6.121951 -33.822506
v -3.863756 6.121951 -38.178715
v -6.256982 6.121951 -38.511742
v 3.398201 6.121951 -38.947628
v 6.146564 6.121951 -34.577171
v 7.165956 6.121951 -32.794033
v 3.055494 6.121951 -28.772934
v -16.350388 6.121951 -31.311985
v -10.146883 6.121951 -29.471542
v -16.286995 6.121951 -26.683861
v -16.446314 6.121951 -22.288731
v -16.658543 6.121951 -19.782574
v -16.250105 6.121951 -15.638584
v -7.729513 6.121951 -15.330959
v -7.729513 6.121951 -13.482601
v -10.415524 6.121951 -13.484314
v -10.253674 6.121951 -15.330959
v -16.703800 6.121951 -11.331375
v -16.865894 6.121951 -6.656664
v -16.166838 6.121951 1.243160
v -16.028008 6.121951 4.155878
v -16.423817 6.121951 6.399254
v -3.087971 6.121951 -5.019243
v -5.537394 6.121951 1.918781
v -5.537394 6.121951 0.715952
v -18.220535 6.121951 -37.361359
v -23.378965 6.121951 -42.365170
v -31.847313 6.121951 -41.029545
v -26.826929 6.121951 -44.044308
v -26.393436 6.121951 -37.175232
v -29.603701 6.121951 -36.932438
v -32.036697 6.121951 -36.857937
v -33.234947 6.121951 -37.775581
v -35.052414 6.121951 -42.769718
v -36.698147 6.121951 -36.764652
v -39.705139 6.121951 -42.743214
v -43.098282 6.121951 -42.421947
v -38.230064 6.121951 -35.362240
v -43.736824 6.121951 -35.362240
v -38.053200 6.121951 -33.650433
v -43.781860 6.121951 -30.072353
v -38.126373 6.121951 -30.072353
v -38.436314 6.121951 -26.756878
v -43.429901 6.121951 -25.045498
v -38.417007 6.121951 -22.705898
v -43.487312 6.121951 -20.587402
v -38.961349 6.121951 -19.457005
v -43.463791 6.121951 -16.259693
v -38.166035 6.121951 -15.664177
v -38.143570 6.121951 -12.079121
v -43.296219 6.121951 -12.079121
v -38.113384 6.121951 -8.552704
v -43.850594 6.121951 -7.256763
v -38.176025 6.121951 -3.526922
v -45.365829 6.121951 -2.350899
v -38.872314 6.121951 -0.040306
v -44.248947 6.121951 2.402908
v -37.956139 6.121951 5.363482
v -43.417374 6.121951 9.491878
v -39.942024 6.121951 10.223713
v -36.229782 6.121951 4.044813
v -36.229782 6.121951 9.873652
v -31.434805 6.121951 4.402834
v -31.434805 6.121951 10.502548
v -29.963879 6.121951 4.309433
v -26.470196 6.121951 10.708399
v -25.910271 6.121951 5.153913
v -26.247046 6.121951 4.457928
l 1 2
l 3 1
l 1 4
l 4 5
l 5 6
l 6 7
l 5 8
l 8 9
l 9 10
l 10 11
l 11 12
l 12 13
l 7 14
l 14 15
l 15 16
l 16 17
l 17 18
l 18 19
l 19 20
l 19 21
l 21 22
l 22 23
l 22 24
l 24 25
l 25 26
l 26 27
l 27 28
l 28 29
l 28 30
l 30 31
l 31 32
l 32 33
l 33 34
l 147 35
l 35 36
l 36 37
l 37 38
l 38 39
l 39 40
l 40 41
l 41 42
l 40 43
l 43 44
l 44 45
l 45 46
l 46 47
l 47 48
l 47 49
l 49 50
l 50 51
l 51 52
l 52 53
l 53 54
l 54 55
l 55 56
l 56 57
l 57 58
l 58 59
l 59 60
l 60 61
l 61 62
l 62 63
l 63 64
l 13 64
l 64 65
l 65 66
l 58 67
l 67 68
l 68 69
l 69 70
l 70 71
l 71 72
l 67 73
l 58 74
l 74 75
l 75 76
l 75 77
l 76 77
l 77 78
l 77 79
l 78 79
l 79 80
l 79 81
l 81 82
l 82 83
l 83 84
l 84 85
l 85 86
l 86 87
l 87 88
l 88 89
l 87 90
l 90 91
l 91 92
l 92 93
l 93 94
l 94 95
l 95 96
l 96 97
l 97 98
l 98 99
l 99 100
l 100 101
l 101 102
l 102 103
l 103 104
l 104 105
l 2 106
l 106 107
l 107 108
l 105 109
l 109 110
l 110 111
l 111 112
l 112 113
l 111 114
l 114 115
l 115 116
l 116 117
l 117 118
l 2 118
l 119 3
l 1 120
l 119 120
l 4 121
l 120 121
l 6 122
l 7 123
l 14 124
l 15 125
l 125 126
l 16 127
l 17 128
l 18 129
l 20 130
l 20 131
l 19 132
l 21 133
l 21 134
l 24 135
l 24 136
l 25 137
l 25 138
l 33 139
l 138 139
l 26 140
l 27 141
l 29 142
l 30 143
l 31 144
l 32 145
l 66 146
l 145 146
l 143 144
l 29 147
l 147 148
l 35 149
l 36 150
l 36 151
l 37 152
l 37 153
l 153 154
l 154 155
l 155 156
l 156 157
l 38 158
l 39 159
l 40 160
l 43 161
l 44 162
l 45 163
l 46 164
l 46 165
l 47 166
l 48 167
l 48 168
l 41 169
l 41 170
l 42 171
l 49 172
l 49 173
l 50 174
l 51 175
l 52 176
l 53 177
l 54 178
l 55 179
l 56 180
l 57 181
l 67 182
l 73 183
l 73 184
l 68 185
l 54 186
l 185 186
l 69 187
l 70 188
l 71 189
l 72 190
l 59 191
l 60 192
l 190 192
l 61 193
l 62 194
l 63 195
l 13 196
l 65 197
l 197 198
l 34 198
l 198 199
l 197 200
l 12 201
l 11 202
l 10 203
l 9 204
l 8 205
l 34 206
l 124 207
l 207 208
l 206 208
l 75 209
l 78 210
l 80 211
l 80 212
l 79 213
l 81 214
l 82 215
l 83 216
l 84 217
l 85 218
l 86 219
l 88 220
l 90 221
l 90 222
l 91 223
l 92 224
l 92 225
l 93 226
l 94 227
l 95 228
l 96 229
l 97 230
l 98 231
l 99 232
l 100 233
l 100 234
l 101 235
l 102 236
l 103 237
l 104 238
l 105 239
l 109 240
l 110 241
l 112 242
l 111 243
l 114 244
l 114 245
l 115 246
l 115 247
l 116 248
l 117 249
l 118 250
l 250 251
l 248 251
