# Blender 4.5.3 LTS
# www.blender.org
mtllib GFloor.mtl
o ground_aligned
v -103.881599 -1.474222 114.745468
v 96.115944 -1.474222 114.745468
v -103.881599 -1.474222 -85.252075
v 96.115944 -1.474222 -85.252075
vn -0.0000 1.0000 -0.0000
vt 0.000000 0.000000
vt 1.000000 0.000000
vt 1.000000 1.000000
vt 0.000000 1.000000
s 0
usemtl ground_aligned
f 1/1/1 2/2/1 4/3/1 3/4/1
o Plane.002
v -54.148911 -1.474222 -52.687012
v -34.107910 -1.474222 -52.687012
v -54.148911 -1.474222 -58.151226
v -34.107910 -1.474222 -58.151226
v -26.952911 -1.474222 41.785709
v 29.773483 -1.474222 41.785709
v -26.952911 -1.474222 -14.940681
v 29.773483 -1.474222 -14.940681
v -15.015518 -1.474222 16.384403
v 29.873573 -1.474222 16.384403
v -15.015518 -1.474222 -14.786430
v 29.873573 -1.474222 -14.786430
v -38.446354 -1.474222 34.048038
v 24.452057 -1.474222 34.048038
v -38.446354 -1.474222 -12.874496
v 24.452057 -1.474222 -12.874496
v -38.272240 -1.225761 34.027241
v 21.289764 -1.225761 34.027241
v -35.831932 -1.474222 -9.188107
v -31.129494 -1.474222 -9.188107
v -35.831932 -1.474222 -55.423477
v -31.129494 -1.474222 -55.423477
v -54.297527 -1.474222 -55.139881
v -31.099733 -1.474222 -55.139881
v -54.297527 -1.474222 -81.552139
v -31.099733 -1.474222 -81.552139
v -31.050636 -1.474222 42.103390
v -22.620216 -1.474222 42.103390
v -31.050636 -1.474222 23.000050
v -22.620216 -1.474222 23.000050
v 14.279926 -1.474222 31.027767
v 29.976463 -1.474222 31.027767
v 14.279926 -1.474222 15.331230
v 29.976463 -1.474222 15.331230
v -15.579550 -1.474222 8.656723
v 19.356964 -1.474222 8.656723
v -15.579550 -1.474222 -26.279791
v 19.356964 -1.474222 -26.279791
v -28.008139 -1.474222 13.786781
v 3.601242 -1.474222 13.786781
v -28.008139 -1.474222 -17.822605
v 3.601242 -1.474222 -17.822605
v -63.535728 -1.474222 -67.607918
v -40.135788 -1.474222 -67.607918
v -63.535728 -1.474222 -73.987953
v -40.135788 -1.474222 -73.987953
v -43.793072 -1.474222 -56.772236
v -23.752071 -1.474222 -56.772236
v -43.793072 -1.474222 -59.702190
v -23.752071 -1.474222 -59.702190
vn -0.0000 1.0000 -0.0000
vt 0.000000 0.000000
vt 1.000000 0.000000
vt 1.000000 1.000000
vt 0.000000 1.000000
s 0
usemtl 
f 5/5/2 6/6/2 8/7/2 7/8/2
f 9/5/2 10/6/2 12/7/2 11/8/2
s 1
f 13/5/2 14/6/2 16/7/2 15/8/2
f 23/5/2 24/6/2 26/7/2 25/8/2
f 27/5/2 28/6/2 30/7/2 29/8/2
f 31/5/2 32/6/2 34/7/2 33/8/2
s 0
f 35/5/2 36/6/2 38/7/2 37/8/2
f 39/5/2 40/6/2 42/7/2 41/8/2
f 43/5/2 44/6/2 46/7/2 45/8/2
f 47/5/2 48/6/2 50/7/2 49/8/2
f 51/5/2 52/6/2 54/7/2 53/8/2
s 1
usemtl Material.001
f 17/5/2 18/6/2 20/7/2 19/8/2
l 21 22
o Cube.017
v 14.500665 2.228756 22.305641
v 14.500665 -2.750750 22.305641
v 14.500665 2.228756 25.569923
v 14.500665 -2.750750 25.569923
v 13.457782 2.228756 22.305641
v 13.457782 -2.750750 22.305641
v 13.457782 2.228756 25.569923
v 13.457782 -2.750750 25.569923
v -14.889583 2.228750 -0.770151
v -14.889583 -2.750756 -0.770151
v -14.889583 2.228750 2.494131
v -14.889583 -2.750756 2.494131
v -15.932464 2.228750 -0.770151
v -15.932464 -2.750756 -0.770151
v -15.932464 2.228750 2.494131
v -15.932464 -2.750756 2.494131
v -26.645916 2.228743 -3.835663
v -26.645916 -2.750762 -3.835663
v -26.645916 2.228743 -0.571381
v -26.645916 -2.750762 -0.571381
v -27.688801 2.228743 -3.835663
v -27.688801 -2.750762 -3.835663
v -27.688801 2.228743 -0.571381
v -27.688801 -2.750762 -0.571381
v -26.801640 2.228743 2.913624
v -26.801640 -2.750762 2.913624
v -26.801640 2.228743 6.177906
v -26.801640 -2.750762 6.177906
v -27.844521 2.228743 2.913624
v -27.844521 -2.750762 2.913624
v -27.844521 2.228743 6.177906
v -27.844521 -2.750762 6.177906
v -11.329549 2.228737 -7.875265
v -11.329549 -2.750769 -7.875265
v -11.329549 2.228737 -4.610983
v -11.329549 -2.750769 -4.610983
v -12.372432 2.228737 -7.875265
v -12.372432 -2.750769 -7.875265
v -12.372432 2.228737 -4.610983
v -12.372432 -2.750769 -4.610983
v -26.645916 2.228737 -7.728312
v -26.645916 -2.750769 -7.728312
v -26.645916 2.228737 -4.464031
v -26.645916 -2.750769 -4.464031
v -27.688801 2.228737 -7.728312
v -27.688801 -2.750769 -7.728312
v -27.688801 2.228737 -4.464031
v -27.688801 -2.750769 -4.464031
v -35.784458 2.228731 -38.863754
v -35.784458 -2.750775 -38.863754
v -35.784458 2.228731 -35.599472
v -35.784458 -2.750775 -35.599472
v -37.183899 2.228731 -38.863754
v -37.183899 -2.750775 -38.863754
v -37.183899 2.228731 -35.599472
v -37.183899 -2.750775 -35.599472
v -29.833672 2.228731 -38.759510
v -29.833672 -2.750775 -38.759510
v -29.833672 2.228731 -35.495228
v -29.833672 -2.750775 -35.495228
v -31.173523 2.228731 -38.759510
v -31.173523 -2.750775 -38.759510
v -31.173523 2.228731 -35.495228
v -31.173523 -2.750775 -35.495228
v -25.863644 2.228731 -59.509163
v -25.863644 -2.750775 -59.509163
v -25.863644 2.228731 -56.902039
v -25.863644 -2.750775 -56.902039
v -26.906525 2.228731 -59.509163
v -26.906525 -2.750775 -59.509163
v -26.906525 2.228731 -56.902039
v -26.906525 -2.750775 -56.902039
v -53.791885 2.228731 -59.639130
v -53.791885 -2.750775 -59.639130
v -53.791885 2.228731 -56.374847
v -53.791885 -2.750775 -56.374847
v -54.834763 2.228731 -59.639130
v -54.834763 -2.750775 -59.639130
v -54.834763 2.228731 -56.374847
v -54.834763 -2.750775 -56.374847
v -35.796028 1.912008 -53.276031
v -35.796028 -3.067498 -53.276031
v -31.188179 1.912008 -53.278641
v -31.188179 -3.067498 -53.278641
v -35.795193 1.912008 -52.233147
v -35.795193 -3.067498 -52.233147
v -31.187344 1.912008 -52.235764
v -31.187344 -3.067498 -52.235764
v -34.650921 1.912002 -60.998138
v -34.650921 -3.067504 -60.998138
v -31.386639 1.912002 -61.000755
v -31.386639 -3.067504 -61.000755
v -34.650082 1.912002 -59.955254
v -34.650082 -3.067504 -59.955254
v -31.385803 1.912002 -59.957870
v -31.385803 -3.067504 -59.957870
v -36.141018 2.228731 -70.570358
v -36.141018 -2.750775 -70.570358
v -36.141018 2.228731 -67.306076
v -36.141018 -2.750775 -67.306076
v -37.183899 2.228731 -70.570358
v -37.183899 -2.750775 -70.570358
v -37.183899 2.228731 -67.306068
v -37.183899 -2.750775 -67.306068
v -42.461292 1.912002 -71.539169
v -42.461292 -3.067504 -71.539169
v -39.832497 1.912002 -71.541786
v -39.832497 -3.067504 -71.541786
v -42.460457 1.912002 -70.496292
v -42.460457 -3.067504 -70.496292
v -39.831657 1.912002 -70.498909
v -39.831657 -3.067504 -70.498909
v 0.659677 2.228737 -7.875265
v 0.659677 -2.750769 -7.875265
v 0.659677 2.228737 -4.610983
v 0.659677 -2.750769 -4.610983
v -0.383205 2.228737 -7.875265
v -0.383205 -2.750769 -7.875265
v -0.383205 2.228737 -4.610983
v -0.383205 -2.750769 -4.610983
v 19.713362 2.228737 2.932278
v 19.713362 -2.750769 2.932278
v 19.713362 2.228737 6.196560
v 19.713362 -2.750769 6.196560
v 18.670479 2.228737 2.932278
v 18.670479 -2.750769 2.932278
v 18.670479 2.228737 6.196560
v 18.670479 -2.750769 6.196560
v 20.195183 2.228737 -17.293442
v 20.195183 -2.750769 -17.293442
v 20.195183 2.228737 -14.029160
v 20.195183 -2.750769 -14.029160
v 19.152302 2.228737 -17.293442
v 19.152302 -2.750769 -17.293442
v 19.152302 2.228737 -14.029160
v 19.152302 -2.750769 -14.029160
v 19.675476 1.912014 10.731670
v 19.675476 -3.067492 10.731670
v 22.939758 1.912014 10.729055
v 22.939758 -3.067492 10.729055
v 19.676310 1.912014 11.774551
v 19.676310 -3.067492 11.774551
v 22.940592 1.912014 11.771936
v 22.940592 -3.067492 11.771936
v 19.675476 1.912014 -13.452126
v 19.675476 -3.067492 -13.452126
v 22.939758 1.912014 -13.454735
v 22.939758 -3.067492 -13.454735
v 19.676310 1.912014 -12.409241
v 19.676310 -3.067492 -12.409241
v 22.940592 1.912014 -12.411854
v 22.940592 -3.067492 -12.411854
v -15.595746 1.912014 -13.452126
v -15.595746 -3.067492 -13.452126
v -12.983291 1.912014 -13.454735
v -12.983291 -3.067492 -13.454735
v -15.594913 1.912014 -12.409241
v -15.594913 -3.067492 -12.409241
v -12.982455 1.912014 -12.411854
v -12.982455 -3.067492 -12.411854
v -4.510947 1.912014 -4.616667
v -4.510947 -3.067492 -4.616667
v -1.246666 1.912014 -4.619282
v -1.246666 -3.067492 -4.619282
v -4.510110 1.912014 -3.573786
v -4.510110 -3.067492 -3.573786
v -1.245829 1.912014 -3.576401
v -1.245829 -3.067492 -3.576401
v -38.116665 1.912014 7.205391
v -38.116665 -3.067492 7.205391
v -34.852383 1.912014 7.202776
v -34.852383 -3.067492 7.202776
v -38.115833 1.912014 8.248272
v -38.115833 -3.067492 8.248272
v -34.851551 1.912014 8.245657
v -34.851551 -3.067492 8.245657
v -15.140912 2.228743 -7.875265
v -15.140912 -2.750762 -7.875265
v -15.140912 2.228743 -4.610983
v -15.140912 -2.750762 -4.610983
v -16.183796 2.228743 -7.875265
v -16.183796 -2.750762 -7.875265
v -16.183796 2.228743 -4.610983
v -16.183796 -2.750762 -4.610983
v 23.977489 2.228743 18.962891
v 23.977489 -2.750762 18.962891
v 23.977489 2.228743 22.227173
v 23.977489 -2.750762 22.227173
v 22.934608 2.228743 18.962891
v 22.934608 -2.750762 18.962891
v 22.934608 2.228743 22.227173
v 22.934608 -2.750762 22.227173
v 23.977489 2.228743 22.502930
v 23.977489 -2.750762 22.502930
v 23.977489 2.228743 25.767212
v 23.977489 -2.750762 25.767212
v 22.934608 2.228743 22.502930
v 22.934608 -2.750762 22.502930
v 22.934608 2.228743 25.767212
v 22.934608 -2.750762 25.767212
v 6.565434 1.912020 33.014061
v 6.565434 -3.067485 33.014061
v 9.829715 1.912020 33.011444
v 9.829715 -3.067485 33.011444
v 6.566269 1.912020 34.056942
v 6.566269 -3.067485 34.056942
v 9.830549 1.912020 34.054329
v 9.830549 -3.067485 34.054329
v 2.473166 1.912020 33.014061
v 2.473166 -3.067485 33.014061
v 5.737447 1.912020 33.011444
v 5.737447 -3.067485 33.011444
v 2.474000 1.912020 34.056942
v 2.474000 -3.067485 34.056942
v 5.738282 1.912020 34.054329
v 5.738282 -3.067485 34.054329
v -10.085271 1.912020 -4.616667
v -10.085271 -3.067485 -4.616667
v -6.820989 1.912020 -4.619282
v -6.820989 -3.067485 -4.619282
v -10.084435 1.912020 -3.573786
v -10.084435 -3.067485 -3.573786
v -6.820155 1.912020 -3.576401
v -6.820155 -3.067485 -3.576401
v -38.008476 2.228750 10.562191
v -38.008476 -2.750756 10.562191
v -38.008476 2.228750 13.826472
v -38.008476 -2.750756 13.826472
v -39.051357 2.228750 10.562191
v -39.051357 -2.750756 10.562191
v -39.051357 2.228750 13.826472
v -39.051357 -2.750756 13.826472
v -33.848232 2.228750 31.280363
v -33.848232 -2.750756 31.280363
v -33.848232 2.228750 34.544647
v -33.848232 -2.750756 34.544647
v -34.891113 2.228750 31.280363
v -34.891113 -2.750756 31.280363
v -34.891113 2.228750 34.544647
v -34.891113 -2.750756 34.544647
v -30.971512 2.228750 26.874752
v -30.971512 -2.750756 26.874752
v -30.971512 2.228750 30.139034
v -30.971512 -2.750756 30.139034
v -32.014393 2.228750 26.874752
v -32.014393 -2.750756 26.874752
v -32.014393 2.228750 30.139034
v -32.014393 -2.750756 30.139034
v -14.889583 2.228750 2.913626
v -14.889583 -2.750756 2.913626
v -14.889583 2.228750 6.177908
v -14.889583 -2.750756 6.177908
v -15.932464 2.228750 2.913626
v -15.932464 -2.750756 2.913626
v -15.932464 2.228750 6.177908
v -15.932464 -2.750756 6.177908
v -11.026059 2.228750 8.355196
v -11.026059 -2.750756 8.355196
v -11.026059 2.228750 11.619478
v -11.026059 -2.750756 11.619478
v -12.068944 2.228750 8.355196
v -12.068944 -2.750756 8.355196
v -12.068944 2.228750 11.619478
v -12.068944 -2.750756 11.619478
v -6.730474 1.912027 33.014061
v -6.730474 -3.067479 33.014061
v -3.466193 1.912027 33.011444
v -3.466193 -3.067479 33.011444
v -6.729638 1.912027 34.056942
v -6.729638 -3.067479 34.056942
v -3.465358 1.912027 34.054329
v -3.465358 -3.067479 34.054329
v -11.944493 1.912027 33.014061
v -11.944493 -3.067479 33.014061
v -8.680211 1.912027 33.011444
v -8.680211 -3.067479 33.011444
v -11.943656 1.912027 34.056942
v -11.943656 -3.067479 34.056942
v -8.679376 1.912027 34.054329
v -8.679376 -3.067479 34.054329
v -16.820080 1.912027 33.014061
v -16.820080 -3.067479 33.014061
v -13.555800 1.912027 33.011444
v -13.555800 -3.067479 33.011444
v -16.819244 1.912027 34.056942
v -16.819244 -3.067479 34.056942
v -13.554963 1.912027 34.054329
v -13.554963 -3.067479 34.054329
v -20.891006 1.912027 33.014061
v -20.891006 -3.067479 33.014061
v -19.267113 1.912027 33.011444
v -19.267113 -3.067479 33.011444
v -20.890171 1.912027 34.056942
v -20.890171 -3.067479 34.056942
v -19.266273 1.912027 34.054329
v -19.266273 -3.067479 34.054329
v -16.588036 1.912027 29.435118
v -16.588036 -3.067479 29.435118
v -13.323756 1.912027 29.432503
v -13.323756 -3.067479 29.432503
v -16.587200 1.912027 30.478001
v -16.587200 -3.067479 30.478001
v -13.322919 1.912027 30.475384
v -13.322919 -3.067479 30.475384
v -28.909199 1.912027 40.415802
v -28.909199 -3.067479 40.415802
v -25.644917 1.912027 40.413189
v -25.644917 -3.067479 40.413189
v -28.908363 1.912027 41.458687
v -28.908363 -3.067479 41.458687
v -25.644081 1.912027 41.456070
v -25.644081 -3.067479 41.456070
v 23.977493 2.228756 31.256132
v 23.977493 -2.750750 31.256132
v 23.977493 2.228756 34.520416
v 23.977493 -2.750750 34.520416
v 22.934612 2.228756 31.256132
v 22.934612 -2.750750 31.256132
v 22.934612 2.228756 34.520416
v 22.934612 -2.750750 34.520416
v 23.977493 2.228756 34.450356
v 23.977493 -2.750750 34.450356
v 23.977493 2.228756 37.714638
v 23.977493 -2.750750 37.714638
v 22.934612 2.228756 34.450356
v 22.934612 -2.750750 34.450356
v 22.934612 2.228756 37.714638
v 22.934612 -2.750750 37.714638
v 19.288204 2.228756 34.450356
v 19.288204 -2.750750 34.450356
v 19.288204 2.228756 37.714638
v 19.288204 -2.750750 37.714638
v 18.245323 2.228756 34.450356
v 18.245323 -2.750750 34.450356
v 18.245323 2.228756 37.714638
v 18.245323 -2.750750 37.714638
v 16.272688 1.912033 25.177790
v 16.272688 -3.067473 25.177790
v 19.536968 1.912033 25.175175
v 19.536968 -3.067473 25.175175
v 16.273523 1.912033 26.220673
v 16.273523 -3.067473 26.220673
v 19.537804 1.912033 26.218058
v 19.537804 -3.067473 26.218058
v 16.272688 1.912033 21.504299
v 16.272688 -3.067473 21.504299
v 19.536968 1.912033 21.501684
v 19.536968 -3.067473 21.501684
v 16.273523 1.912033 22.547180
v 16.273523 -3.067473 22.547180
v 19.537804 1.912033 22.544567
v 19.537804 -3.067473 22.544567
v -52.561226 1.912039 -71.539177
v -52.561226 -3.067466 -71.539177
v -49.296940 1.912039 -71.541794
v -49.296940 -3.067466 -71.541794
v -52.560387 1.912039 -70.496292
v -52.560387 -3.067466 -70.496292
v -49.296104 1.912039 -70.498909
v -49.296104 -3.067466 -70.498909
vn -0.0000 -0.0000 1.0000
vn -0.0000 -0.0000 -1.0000
vn -0.0000 1.0000 -0.0000
vn 1.0000 -0.0000 -0.0008
vn -1.0000 -0.0000 0.0008
vt 0.375000 0.250000
vt 0.625000 0.250000
vt 0.625000 0.500000
vt 0.375000 0.500000
vt 0.375000 0.750000
vt 0.625000 0.750000
vt 0.625000 1.000000
vt 0.375000 1.000000
vt 0.125000 0.500000
vt 0.125000 0.750000
s 0
f 57/9/3 61/12/3 62/11/3 58/10/3
f 59/13/4 55/16/4 56/15/4 60/14/4
f 57/17/5 55/18/5 59/13/5 61/12/5
f 65/9/3 69/12/3 70/11/3 66/10/3
f 67/13/4 63/16/4 64/15/4 68/14/4
f 65/17/5 63/18/5 67/13/5 69/12/5
f 73/9/3 77/12/3 78/11/3 74/10/3
f 75/13/4 71/16/4 72/15/4 76/14/4
f 73/17/5 71/18/5 75/13/5 77/12/5
f 81/9/3 85/12/3 86/11/3 82/10/3
f 83/13/4 79/16/4 80/15/4 84/14/4
f 81/17/5 79/18/5 83/13/5 85/12/5
f 89/9/3 93/12/3 94/11/3 90/10/3
f 91/13/4 87/16/4 88/15/4 92/14/4
f 89/17/5 87/18/5 91/13/5 93/12/5
f 97/9/3 101/12/3 102/11/3 98/10/3
f 99/13/4 95/16/4 96/15/4 100/14/4
f 97/17/5 95/18/5 99/13/5 101/12/5
f 105/9/3 109/12/3 110/11/3 106/10/3
f 107/13/4 103/16/4 104/15/4 108/14/4
f 105/17/5 103/18/5 107/13/5 109/12/5
f 113/9/3 117/12/3 118/11/3 114/10/3
f 115/13/4 111/16/4 112/15/4 116/14/4
f 113/17/5 111/18/5 115/13/5 117/12/5
f 121/9/3 125/12/3 126/11/3 122/10/3
f 123/13/4 119/16/4 120/15/4 124/14/4
f 121/17/5 119/18/5 123/13/5 125/12/5
f 129/9/3 133/12/3 134/11/3 130/10/3
f 131/13/4 127/16/4 128/15/4 132/14/4
f 129/17/5 127/18/5 131/13/5 133/12/5
f 137/9/6 141/12/6 142/11/6 138/10/6
f 139/13/7 135/16/7 136/15/7 140/14/7
f 137/17/5 135/18/5 139/13/5 141/12/5
f 145/9/6 149/12/6 150/11/6 146/10/6
f 147/13/7 143/16/7 144/15/7 148/14/7
f 145/17/5 143/18/5 147/13/5 149/12/5
f 153/9/3 157/12/3 158/11/3 154/10/3
f 155/13/4 151/16/4 152/15/4 156/14/4
f 153/17/5 151/18/5 155/13/5 157/12/5
f 161/9/6 165/12/6 166/11/6 162/10/6
f 163/13/7 159/16/7 160/15/7 164/14/7
f 161/17/5 159/18/5 163/13/5 165/12/5
f 169/9/3 173/12/3 174/11/3 170/10/3
f 171/13/4 167/16/4 168/15/4 172/14/4
f 169/17/5 167/18/5 171/13/5 173/12/5
f 177/9/3 181/12/3 182/11/3 178/10/3
f 179/13/4 175/16/4 176/15/4 180/14/4
f 177/17/5 175/18/5 179/13/5 181/12/5
f 185/9/3 189/12/3 190/11/3 186/10/3
f 187/13/4 183/16/4 184/15/4 188/14/4
f 185/17/5 183/18/5 187/13/5 189/12/5
f 193/9/6 197/12/6 198/11/6 194/10/6
f 195/13/7 191/16/7 192/15/7 196/14/7
f 193/17/5 191/18/5 195/13/5 197/12/5
f 201/9/6 205/12/6 206/11/6 202/10/6
f 203/13/7 199/16/7 200/15/7 204/14/7
f 201/17/5 199/18/5 203/13/5 205/12/5
f 209/9/6 213/12/6 214/11/6 210/10/6
f 211/13/7 207/16/7 208/15/7 212/14/7
f 209/17/5 207/18/5 211/13/5 213/12/5
f 217/9/6 221/12/6 222/11/6 218/10/6
f 219/13/7 215/16/7 216/15/7 220/14/7
f 217/17/5 215/18/5 219/13/5 221/12/5
f 225/9/6 229/12/6 230/11/6 226/10/6
f 227/13/7 223/16/7 224/15/7 228/14/7
f 225/17/5 223/18/5 227/13/5 229/12/5
f 233/9/3 237/12/3 238/11/3 234/10/3
f 235/13/4 231/16/4 232/15/4 236/14/4
f 233/17/5 231/18/5 235/13/5 237/12/5
f 241/9/3 245/12/3 246/11/3 242/10/3
f 243/13/4 239/16/4 240/15/4 244/14/4
f 241/17/5 239/18/5 243/13/5 245/12/5
f 249/9/3 253/12/3 254/11/3 250/10/3
f 251/13/4 247/16/4 248/15/4 252/14/4
f 249/17/5 247/18/5 251/13/5 253/12/5
f 257/9/6 261/12/6 262/11/6 258/10/6
f 259/13/7 255/16/7 256/15/7 260/14/7
f 257/17/5 255/18/5 259/13/5 261/12/5
f 265/9/6 269/12/6 270/11/6 266/10/6
f 267/13/7 263/16/7 264/15/7 268/14/7
f 265/17/5 263/18/5 267/13/5 269/12/5
f 273/9/6 277/12/6 278/11/6 274/10/6
f 275/13/7 271/16/7 272/15/7 276/14/7
f 273/17/5 271/18/5 275/13/5 277/12/5
f 281/9/3 285/12/3 286/11/3 282/10/3
f 283/13/4 279/16/4 280/15/4 284/14/4
f 281/17/5 279/18/5 283/13/5 285/12/5
f 289/9/3 293/12/3 294/11/3 290/10/3
f 291/13/4 287/16/4 288/15/4 292/14/4
f 289/17/5 287/18/5 291/13/5 293/12/5
f 297/9/3 301/12/3 302/11/3 298/10/3
f 299/13/4 295/16/4 296/15/4 300/14/4
f 297/17/5 295/18/5 299/13/5 301/12/5
f 305/9/3 309/12/3 310/11/3 306/10/3
f 307/13/4 303/16/4 304/15/4 308/14/4
f 305/17/5 303/18/5 307/13/5 309/12/5
f 313/9/3 317/12/3 318/11/3 314/10/3
f 315/13/4 311/16/4 312/15/4 316/14/4
f 313/17/5 311/18/5 315/13/5 317/12/5
f 321/9/6 325/12/6 326/11/6 322/10/6
f 323/13/7 319/16/7 320/15/7 324/14/7
f 321/17/5 319/18/5 323/13/5 325/12/5
f 329/9/6 333/12/6 334/11/6 330/10/6
f 331/13/7 327/16/7 328/15/7 332/14/7
f 329/17/5 327/18/5 331/13/5 333/12/5
f 337/9/6 341/12/6 342/11/6 338/10/6
f 339/13/7 335/16/7 336/15/7 340/14/7
f 337/17/5 335/18/5 339/13/5 341/12/5
f 345/9/6 349/12/6 350/11/6 346/10/6
f 347/13/7 343/16/7 344/15/7 348/14/7
f 345/17/5 343/18/5 347/13/5 349/12/5
f 353/9/6 357/12/6 358/11/6 354/10/6
f 355/13/7 351/16/7 352/15/7 356/14/7
f 353/17/5 351/18/5 355/13/5 357/12/5
f 361/9/6 365/12/6 366/11/6 362/10/6
f 363/13/7 359/16/7 360/15/7 364/14/7
f 361/17/5 359/18/5 363/13/5 365/12/5
f 369/9/3 373/12/3 374/11/3 370/10/3
f 371/13/4 367/16/4 368/15/4 372/14/4
f 369/17/5 367/18/5 371/13/5 373/12/5
f 377/9/3 381/12/3 382/11/3 378/10/3
f 379/13/4 375/16/4 376/15/4 380/14/4
f 377/17/5 375/18/5 379/13/5 381/12/5
f 385/9/3 389/12/3 390/11/3 386/10/3
f 387/13/4 383/16/4 384/15/4 388/14/4
f 385/17/5 383/18/5 387/13/5 389/12/5
f 393/9/6 397/12/6 398/11/6 394/10/6
f 395/13/7 391/16/7 392/15/7 396/14/7
f 393/17/5 391/18/5 395/13/5 397/12/5
f 401/9/6 405/12/6 406/11/6 402/10/6
f 403/13/7 399/16/7 400/15/7 404/14/7
f 401/17/5 399/18/5 403/13/5 405/12/5
f 409/9/6 413/12/6 414/11/6 410/10/6
f 411/13/7 407/16/7 408/15/7 412/14/7
f 409/17/5 407/18/5 411/13/5 413/12/5
o Cube.045
v -49.143631 -2.785694 -64.384750
v -49.143631 3.551049 -64.384750
v -49.143631 -2.785694 -70.721497
v -49.143631 3.551049 -70.721497
v -42.806885 -2.785694 -64.384750
v -42.806885 3.551049 -64.384750
v -42.806885 -2.785694 -70.721497
v -42.806885 3.551049 -70.721497
vn -1.0000 -0.0000 -0.0000
vn -0.0000 -0.0000 -1.0000
vn 1.0000 -0.0000 -0.0000
vn -0.0000 -0.0000 1.0000
vn -0.0000 -1.0000 -0.0000
vn -0.0000 1.0000 -0.0000
vt 0.375000 0.000000
vt 0.625000 0.000000
vt 0.625000 0.250000
vt 0.375000 0.250000
vt 0.625000 0.500000
vt 0.375000 0.500000
vt 0.625000 0.750000
vt 0.375000 0.750000
vt 0.625000 1.000000
vt 0.375000 1.000000
vt 0.125000 0.500000
vt 0.125000 0.750000
vt 0.875000 0.500000
vt 0.875000 0.750000
s 0
f 415/19/8 416/20/8 418/21/8 417/22/8
f 417/22/9 418/21/9 422/23/9 421/24/9
f 421/24/10 422/23/10 420/25/10 419/26/10
f 419/26/11 420/25/11 416/27/11 415/28/11
f 417/29/12 421/24/12 419/26/12 415/30/12
f 422/23/13 418/31/13 416/32/13 420/25/13
o Cube
v -19.793531 -1.661083 29.542036
v -19.793531 1.402192 29.542036
v -19.793531 -1.661083 26.478762
v -19.793531 1.402192 26.478762
v -16.730257 -1.661083 29.542036
v -16.730257 1.402192 29.542036
v -16.730257 -1.661083 26.478762
v -16.730257 1.402192 26.478762
vn -1.0000 -0.0000 -0.0000
vn -0.0000 -0.0000 -1.0000
vn 1.0000 -0.0000 -0.0000
vn -0.0000 -0.0000 1.0000
vn -0.0000 -1.0000 -0.0000
vn -0.0000 1.0000 -0.0000
vt 0.375000 0.000000
vt 0.625000 0.000000
vt 0.625000 0.250000
vt 0.375000 0.250000
vt 0.625000 0.500000
vt 0.375000 0.500000
vt 0.625000 0.750000
vt 0.375000 0.750000
vt 0.625000 1.000000
vt 0.375000 1.000000
vt 0.125000 0.500000
vt 0.125000 0.750000
vt 0.875000 0.500000
vt 0.875000 0.750000
s 0
f 423/33/14 424/34/14 426/35/14 425/36/14
f 425/36/15 426/35/15 430/37/15 429/38/15
f 429/38/16 430/37/16 428/39/16 427/40/16
f 427/40/17 428/39/17 424/41/17 423/42/17
f 425/43/18 429/38/18 427/40/18 423/44/18
f 430/37/19 426/45/19 424/46/19 428/39/19
o Cube.001
v -25.788235 -1.741064 41.353485
v -25.788235 1.322212 41.353485
v 30.106968 -1.741064 41.353485
v 30.106968 1.322212 41.353485
v 30.106968 -0.209426 41.353485
vn -0.0000 -0.0000 -1.0000
vt 0.375000 0.250000
vt 0.625000 0.250000
vt 0.625000 0.500000
vt 0.500000 0.500000
vt 0.375000 0.500000
s 0
f 431/47/20 432/48/20 434/49/20 435/50/20 433/51/20
o Cube.002
v 30.042580 -1.741064 41.372837
v 30.042580 1.322212 41.372837
v 30.010395 -1.741064 -14.522373
v 30.010395 1.322212 -14.522373
v 30.010395 -0.209426 -14.522373
vn -1.0000 -0.0000 0.0006
vt 0.375000 0.250000
vt 0.625000 0.250000
vt 0.625000 0.500000
vt 0.500000 0.500000
vt 0.375000 0.500000
s 0
f 436/52/21 437/53/21 439/54/21 440/55/21 438/56/21
o Cube.003
v 22.914307 -1.741064 -12.998439
v 22.914307 1.322212 -12.998439
v 31.339693 -1.741064 -13.027457
v 31.339693 1.322212 -13.027457
v 31.339693 -0.209426 -13.027457
vn -0.0034 -0.0000 -1.0000
vt 0.375000 0.250000
vt 0.625000 0.250000
vt 0.625000 0.500000
vt 0.500000 0.500000
vt 0.375000 0.500000
s 0
f 441/57/22 442/58/22 444/59/22 445/60/22 443/61/22
o Cube.004
v -15.940202 -1.741064 -26.630070
v -15.940202 1.322212 -26.630070
v 20.635559 -1.741064 -26.630070
v 20.635559 1.322212 -26.630070
v 20.635559 -0.209426 -26.630070
vn -0.0000 -0.0000 -1.0000
vt 0.375000 0.250000
vt 0.625000 0.250000
vt 0.625000 0.500000
vt 0.500000 0.500000
vt 0.375000 0.500000
s 0
f 446/62/23 447/63/23 449/64/23 450/65/23 448/66/23
o Cube.005
v 19.707067 -1.741064 -26.694649
v 19.707067 1.322212 -26.694649
v 19.735357 -1.741064 -17.250278
v 19.735357 1.322212 -17.250278
v 19.735357 -0.209426 -17.250278
vn 1.0000 -0.0000 -0.0030
vt 0.375000 0.250000
vt 0.625000 0.250000
vt 0.625000 0.500000
vt 0.500000 0.500000
vt 0.375000 0.500000
s 0
f 451/67/24 452/68/24 454/69/24 455/70/24 453/71/24
o Cube.006
v 19.707067 -1.741064 -14.037269
v 19.707067 1.322212 -14.037269
v 19.735357 -1.741064 -13.433040
v 19.735357 1.322212 -13.433040
v 19.735357 -0.209426 -13.433040
vn 0.9989 -0.0000 -0.0468
vt 0.375000 0.250000
vt 0.625000 0.250000
vt 0.625000 0.500000
vt 0.500000 0.500000
vt 0.375000 0.500000
s 0
f 456/72/25 457/73/25 459/74/25 460/75/25 458/76/25
o Cube.007
v -15.638237 -1.741064 -26.694649
v -15.638237 1.322212 -26.694649
v -15.609947 -1.741064 -7.826128
v -15.609947 1.322212 -7.826128
v -15.609947 -0.209426 -7.826128
vn 1.0000 -0.0000 -0.0015
vt 0.375000 0.250000
vt 0.625000 0.250000
vt 0.625000 0.500000
vt 0.500000 0.500000
vt 0.375000 0.500000
s 0
f 461/77/26 462/78/26 464/79/26 465/80/26 463/81/26
o Cube.008
v -15.638237 -1.741064 -4.661920
v -15.638237 1.322212 -4.661920
v -15.609947 -1.741064 -0.700808
v -15.609947 1.322212 -0.700808
v -15.609947 -0.209426 -0.700808
vn 1.0000 -0.0000 -0.0071
vt 0.375000 0.250000
vt 0.625000 0.250000
vt 0.625000 0.500000
vt 0.500000 0.500000
vt 0.375000 0.500000
s 0
f 466/82/27 467/83/27 469/84/27 470/85/27 468/86/27
o Cube.009
v -15.638237 -1.741064 2.480691
v -15.638237 1.322212 2.480691
v -15.609947 -1.741064 2.964488
v -15.609947 1.322212 2.964488
v -15.609947 -0.209426 2.964488
vn 0.9983 -0.0000 -0.0584
vt 0.375000 0.250000
vt 0.625000 0.250000
vt 0.625000 0.500000
vt 0.500000 0.500000
vt 0.375000 0.500000
s 0
f 471/87/28 472/88/28 474/89/28 475/90/28 473/91/28
o Cube.010
v -20.047274 -1.741064 -3.991266
v -20.047274 1.322212 -3.991266
v -20.018984 -1.741064 3.200707
v -20.018984 1.322212 3.200707
v -20.018984 -0.209426 3.200707
vn 1.0000 -0.0000 -0.0039
vt 0.375000 0.250000
vt 0.625000 0.250000
vt 0.625000 0.500000
vt 0.500000 0.500000
vt 0.375000 0.500000
s 0
f 476/92/29 477/93/29 479/94/29 480/95/29 478/96/29
o Cube.011
v -31.523020 -1.741064 21.884657
v -31.523020 1.322212 21.884657
v -31.494730 -1.741064 26.867714
v -31.494730 1.322212 26.867714
v -31.494730 -0.209426 26.867714
vn 1.0000 -0.0000 -0.0057
vt 0.375000 0.250000
vt 0.625000 0.250000
vt 0.625000 0.500000
vt 0.500000 0.500000
vt 0.375000 0.500000
s 0
f 481/97/30 482/98/30 484/99/30 485/100/30 483/101/30
o Cube.012
v -27.241434 -1.741064 -0.598646
v -27.241434 1.322212 -0.598646
v -27.213144 -1.741064 2.967830
v -27.213144 1.322212 2.967830
v -27.213144 -0.209426 2.967830
vn 1.0000 -0.0000 -0.0079
vt 0.375000 0.250000
vt 0.625000 0.250000
vt 0.625000 0.500000
vt 0.500000 0.500000
vt 0.375000 0.500000
s 0
f 486/102/31 487/103/31 489/104/31 490/105/31 488/106/31
o Cube.013
v -27.217432 -1.741064 -4.487785
v -27.217432 1.322212 -4.487785
v -27.189142 -1.741064 -3.816192
v -27.189142 1.322212 -3.816192
v -27.189142 -0.209426 -3.816192
vn 0.9991 -0.0000 -0.0421
vt 0.375000 0.250000
vt 0.625000 0.250000
vt 0.625000 0.500000
vt 0.500000 0.500000
vt 0.375000 0.500000
s 0
f 491/107/32 492/108/32 494/109/32 495/110/32 493/111/32
o Cube.014
v -27.529428 -1.741064 -14.867655
v -27.529428 1.322212 -14.867655
v -27.501139 -1.741064 -7.675682
v -27.501139 1.322212 -7.675682
v -27.501139 -0.209426 -7.675682
vn 1.0000 -0.0000 -0.0039
vt 0.375000 0.250000
vt 0.625000 0.250000
vt 0.625000 0.500000
vt 0.500000 0.500000
vt 0.375000 0.500000
s 0
f 496/112/33 497/113/33 499/114/33 500/115/33 498/116/33
o Cube.015
v -31.120478 -1.741064 -35.492401
v -31.120478 1.322212 -35.492401
v -31.092188 -1.741064 -10.720171
v -31.092188 1.322212 -10.720171
v -31.092188 -0.209426 -10.720171
vn 1.0000 -0.0000 -0.0011
vt 0.375000 0.250000
vt 0.625000 0.250000
vt 0.625000 0.500000
vt 0.500000 0.500000
vt 0.375000 0.500000
s 0
f 501/117/34 502/118/34 504/119/34 505/120/34 503/121/34
o Cube.016
v -35.858055 -1.741064 -35.581329
v -35.858055 1.322212 -35.581329
v -35.829765 -1.741064 0.627018
v -35.829765 1.322212 0.627018
v -35.829765 -0.209426 0.627018
vn 1.0000 -0.0000 -0.0008
vt 0.375000 0.250000
vt 0.625000 0.250000
vt 0.625000 0.500000
vt 0.500000 0.500000
vt 0.375000 0.500000
s 0
f 506/122/35 507/123/35 509/124/35 510/125/35 508/126/35
o Cube.018
v -31.120478 -1.741064 -56.807106
v -31.120478 1.322212 -56.807106
v -31.092188 -1.741064 -38.647900
v -31.092188 1.322212 -38.647900
v -31.092188 -0.209426 -38.647900
vn 1.0000 -0.0000 -0.0016
vt 0.375000 0.250000
vt 0.625000 0.250000
vt 0.625000 0.500000
vt 0.500000 0.500000
vt 0.375000 0.500000
s 0
f 511/127/36 512/128/36 514/129/36 515/130/36 513/131/36
o Cube.019
v -35.789680 -1.741064 -52.653961
v -35.789680 1.322212 -52.653961
v -35.761391 -1.741064 -38.647900
v -35.761391 1.322212 -38.647900
v -35.761391 -0.209426 -38.647900
vn 1.0000 -0.0000 -0.0020
vt 0.375000 0.250000
vt 0.625000 0.250000
vt 0.625000 0.500000
vt 0.500000 0.500000
vt 0.375000 0.500000
s 0
f 516/132/37 517/133/37 519/134/37 520/135/37 518/136/37
o Cube.020
v -31.120478 -1.741064 -81.541336
v -31.120478 1.322212 -81.541336
v -31.092188 -1.741064 -59.607201
v -31.092188 1.322212 -59.607201
v -31.092188 -0.209426 -59.607201
vn 1.0000 -0.0000 -0.0013
vt 0.375000 0.250000
vt 0.625000 0.250000
vt 0.625000 0.500000
vt 0.500000 0.500000
vt 0.375000 0.500000
s 0
f 521/137/38 522/138/38 524/139/38 525/140/38 523/141/38
o Cube.021
v -54.267830 -1.741064 -81.541336
v -54.267830 1.322212 -81.541336
v -54.239540 -1.741064 -59.607201
v -54.239540 1.322212 -59.607201
v -54.239540 -0.209426 -59.607201
vn 1.0000 -0.0000 -0.0013
vt 0.375000 0.250000
vt 0.625000 0.250000
vt 0.625000 0.500000
vt 0.500000 0.500000
vt 0.375000 0.500000
s 0
f 526/142/39 527/143/39 529/144/39 530/145/39 528/146/39
o Cube.022
v -39.862633 -1.741064 -81.541336
v -39.862633 1.322212 -81.541336
v -39.834343 -1.741064 -69.934326
v -39.834343 1.322212 -69.934326
v -39.834343 -0.209426 -69.934326
vn 1.0000 -0.0000 -0.0024
vt 0.375000 0.250000
vt 0.625000 0.250000
vt 0.625000 0.500000
vt 0.500000 0.500000
vt 0.375000 0.500000
s 0
f 531/147/40 532/148/40 534/149/40 535/150/40 533/151/40
o Cube.023
v -54.180153 -1.741064 -56.448902
v -54.180153 1.322212 -56.448902
v -54.151863 -1.741064 -52.750473
v -54.151863 1.322212 -52.750473
v -54.151863 -0.209426 -52.750473
vn 1.0000 -0.0000 -0.0076
vt 0.375000 0.250000
vt 0.625000 0.250000
vt 0.625000 0.500000
vt 0.500000 0.500000
vt 0.375000 0.500000
s 0
f 536/152/41 537/153/41 539/154/41 540/155/41 538/156/41
o Cube.024
v -38.732201 -1.741064 0.292025
v -38.732201 1.322212 0.292025
v -38.703911 -1.741064 31.208462
v -38.703911 1.322212 31.208462
v -38.703911 -0.209426 31.208462
vn 1.0000 -0.0000 -0.0009
vt 0.375000 0.250000
vt 0.625000 0.250000
vt 0.625000 0.500000
vt 0.500000 0.500000
vt 0.375000 0.500000
s 0
f 541/157/42 542/158/42 544/159/42 545/160/42 543/161/42
o Cube.025
v -33.134178 -1.741064 7.546500
v -33.134178 1.322212 7.546500
v -33.105888 -1.741064 21.963749
v -33.105888 1.322212 21.963749
v -33.105888 -0.209426 21.963749
vn 1.0000 -0.0000 -0.0020
vt 0.375000 0.250000
vt 0.625000 0.250000
vt 0.625000 0.500000
vt 0.500000 0.500000
vt 0.375000 0.500000
s 0
f 546/162/43 547/163/43 549/164/43 550/165/43 548/166/43
o Cube.026
v -31.523020 -1.741064 34.084122
v -31.523020 1.322212 34.084122
v -31.494730 -1.741064 41.849751
v -31.494730 1.322212 41.849751
v -31.494730 -0.209426 41.849751
vn 1.0000 -0.0000 -0.0036
vt 0.375000 0.250000
vt 0.625000 0.250000
vt 0.625000 0.500000
vt 0.500000 0.500000
vt 0.375000 0.500000
s 0
f 551/167/44 552/168/44 554/169/44 555/170/44 553/171/44
