# Blender 4.5.3 LTS
# www.blender.org
mtllib ground_nodes.mtl
o nodes
v -1.050261 7.387952 4.462231
v -1.078215 7.387952 3.801803
v -0.316452 7.387952 3.801803
v -0.319946 7.387952 4.110469
v 0.200709 7.387952 3.787826
v 0.193720 7.387952 4.110469
v 0.611292 7.387952 3.798309
v 0.611292 7.387952 4.110469
v 1.074290 7.387952 3.794814
v 2.056197 7.387952 3.798309
v 2.416112 7.387952 3.794814
v 3.667082 7.387952 3.815780
v 3.660093 7.387952 4.018451
v 3.667082 7.387952 2.945856
v 3.089039 7.387952 4.018451
v 4.307964 7.387952 4.018451
v 4.268640 7.387952 3.815780
v 4.253380 7.387952 2.945856
v 3.414034 7.387952 2.945856
v 2.443090 7.387952 2.945856
v 3.414034 7.387952 3.368481
v 3.414034 7.387952 2.416037
v 1.190024 7.387952 1.550508
v 0.205467 7.387952 1.550508
v 3.667082 7.387952 2.607853
v 4.148324 7.387952 2.607853
v 3.667082 7.387952 2.075161
v 4.500170 7.549944 2.075161
v 4.500170 7.586222 1.874122
v 3.906811 7.734508 1.874122
v 3.667082 7.387952 1.058662
v 3.216190 7.387952 1.058662
v 3.667082 7.387952 -0.035217
v 3.667082 7.387952 -1.015767
v 1.328005 7.387952 -0.035217
v 2.694469 7.387952 -1.015767
v 0.882847 7.387952 -0.035217
v 1.328005 7.387952 0.453724
v 0.882847 7.387952 0.469706
v 0.235171 7.387952 -0.035217
v 0.235171 7.387952 -1.086185
v -0.495755 7.387952 -0.035217
v -1.661067 7.387952 -0.035217
v 0.235171 7.387952 0.717001
v 0.235171 7.387952 1.046819
v -0.008975 7.387952 0.717001
v -0.233572 7.387952 1.046819
v -1.345205 7.387952 1.550508
v 0.200709 7.387952 3.484699
v -0.167696 7.387952 3.484699
v -1.014196 7.387952 3.577403
v -0.949150 7.540650 3.199147
v -0.547771 7.819461 3.199147
v 0.200709 7.387952 2.943581
v -1.311240 7.387952 2.943581
v -1.301666 7.387952 3.801803
v -1.734313 7.387952 3.801803
v -1.301666 7.387952 3.409767
v -1.921339 7.387952 3.409767
v -1.921339 7.387952 1.690627
v -1.921339 7.387952 0.968237
v -1.412673 7.387952 0.968237
v -0.905712 7.387952 0.968237
v -1.412673 7.387952 0.304906
v -0.843010 7.387952 0.304906
v -1.661067 7.387952 -3.133946
v -1.661067 7.387952 -5.065349
v -2.427854 7.387952 -3.133946
v -1.106712 7.387952 -3.133946
v -0.841156 7.387952 -5.205326
v -1.661067 7.387952 -6.214759
v -1.661067 7.387952 -7.067205
v -2.533756 7.387952 -5.316903
v -2.267821 7.387952 -6.214759
v -2.945920 7.387952 -7.216290
v -3.460473 7.387952 -6.355108
v -3.460473 7.387952 -5.202911
v -3.786189 7.387952 -5.202911
v -2.923396 7.387952 -5.583168
v -2.244756 7.387952 -5.383342
v -2.013757 7.387952 -5.383342
v -2.013757 7.793231 -5.919527
l 1 2
l 2 3
l 3 4
l 3 5
l 5 6
l 5 7
l 7 8
l 7 9
l 9 10
l 10 11
l 11 12
l 12 13
l 12 14
l 13 15
l 13 16
l 12 17
l 14 18
l 14 19
l 19 20
l 19 21
l 19 22
l 20 23
l 23 24
l 14 25
l 25 26
l 25 27
l 27 28
l 28 29
l 29 30
l 27 31
l 31 32
l 31 33
l 33 34
l 33 35
l 34 36
l 35 37
l 35 38
l 37 39
l 37 40
l 40 41
l 36 41
l 40 42
l 42 43
l 40 44
l 44 45
l 44 46
l 45 47
l 24 45
l 24 48
l 5 49
l 49 50
l 50 51
l 2 51
l 51 52
l 52 53
l 49 54
l 24 54
l 54 55
l 2 56
l 56 57
l 56 58
l 55 58
l 58 59
l 59 60
l 60 61
l 61 62
l 48 55
l 48 62
l 48 54
l 24 55
l 62 63
l 62 64
l 64 65
l 43 64
l 43 66
l 66 67
l 66 68
l 66 69
l 67 70
l 67 71
l 71 72
l 67 73
l 71 74
l 73 74
l 74 75
l 75 76
l 76 77
l 77 78
l 73 77
l 73 79
l 77 79
l 73 80
l 80 81
l 81 82
