# Blender 4.5.3 LTS
# www.blender.org
mtllib nodes_lower.mtl
o nodes_lower
v -41.077282 12.100000 23.497581
v -68.316162 12.099999 12.533296
v -34.302414 12.100000 23.343733
v -34.073257 12.099999 11.850384
v -78.114624 12.099999 12.665486
v -91.643204 12.099999 12.791923
v -91.727493 12.099999 20.293755
v -78.493919 12.099999 20.251608
v -102.516640 12.099999 20.125172
v -102.643074 12.099999 26.320503
v -92.359665 12.099999 26.362648
v -102.179482 12.099999 13.550536
v -56.849178 12.099999 12.016234
v -56.378273 12.099999 7.281445
v 2.916393 12.099999 12.019250
v 3.801445 12.099999 -8.252547
v -9.600706 12.099999 -7.283211
v -9.347836 12.099999 -16.091541
v -17.650423 12.099999 -15.670086
l 3 1
l 5 2
l 13 4
l 4 3
l 6 5
l 7 6
l 8 7
l 5 8
l 7 9
l 9 10
l 10 11
l 7 11
l 6 12
l 9 12
l 2 13
l 13 14
l 4 15
l 15 16
l 16 17
l 17 18
l 18 19
