# Blender 4.5.3 LTS
# www.blender.org
mtllib nodes_ground.mtl
o nodes_ground
v -64.209732 0.100000 67.535774
v -64.209732 0.100000 62.154221
v -53.476265 0.100000 61.968582
v -53.535072 0.100000 67.359467
v -52.683010 0.100000 44.899483
v -63.929295 0.100000 44.747047
v -74.328735 0.100000 44.730087
v -45.977554 0.100000 44.963440
v -54.576889 0.100000 39.453423
v -46.126762 0.100000 38.478920
v -25.854958 0.100000 38.773941
v -27.035027 0.100000 16.647758
v -63.701271 0.100000 15.678417
v -26.740036 0.100000 -19.512749
v -65.555679 0.100000 -19.934204
v -65.387093 0.100000 -24.443733
v -80.095734 0.100000 -24.485878
v -80.306458 0.100000 -19.428459
v -65.429237 0.100000 -43.071869
v -65.302803 0.100000 -50.278679
v -75.417625 0.100000 -50.362976
v -75.417625 0.100000 -42.987579
v -75.037247 0.100000 -167.298737
v -25.984295 0.100000 44.881088
v -41.004814 0.100000 44.982239
v -16.880947 0.100000 44.931671
v -4.287991 0.100000 45.285683
v 21.504814 0.100000 45.791428
v 28.838066 0.100000 45.437408
v 61.205513 0.100000 45.589134
v 61.256096 0.100000 51.506302
v 62.014717 0.100000 23.134216
v 62.520454 0.100000 9.479206
v 62.217003 0.100000 -8.019447
v -25.853897 0.100000 -66.877434
l 2 1
l 3 2
l 4 3
l 3 5
l 5 6
l 2 6
l 6 7
l 5 8
l 5 9
l 8 10
l 10 11
l 11 12
l 12 13
l 6 13
l 12 14
l 14 15
l 13 15
l 15 16
l 16 17
l 17 18
l 16 19
l 19 20
l 20 21
l 21 22
l 17 22
l 19 22
l 16 22
l 21 23
l 11 24
l 24 25
l 24 26
l 26 27
l 27 28
l 28 29
l 29 30
l 30 31
l 30 32
l 32 33
l 33 34
l 14 35
